<?xml version="1.0" encoding="utf-8" standalone="no"?>
<!DOCTYPE svg PUBLIC "-//W3C//DTD SVG 1.1//EN" "http://www.w3.org/Graphics/SVG/1.1/DTD/svg11.dtd">
<svg width="3000px" height="3000px" version="1.1" xmlns="http://www.w3.org/2000/svg" xmlns:xlink="http://www.w3.org/1999/xlink">
<g id="bg">
<rect x="0" y="0" width="3000px" height="3000px" style="fill:rgb(255,255,255);"/>
</g>
<g id="ideograms">
<g id="highlighttrack_0">
<path d="M1500.000,604.000 A896.000,896.000 40.000 0,1 1537.042,604.766 L1539.853,536.824 A964.000,964.000 0.000 0,0 1500.000,536.000 Z" style="stroke-width:6.0;stroke:rgb(255,255,255);stroke-linecap:round;fill:rgb(255,0,0);" />
<path d="M1537.042,604.766 A896.000,896.000 40.000 0,1 1574.020,607.063 L1579.638,539.295 A964.000,964.000 0.000 0,0 1539.853,536.824 Z" style="stroke-width:6.0;stroke:rgb(255,255,255);stroke-linecap:round;fill:rgb(255,10,0);" />
<path d="M1574.020,607.063 A896.000,896.000 40.000 0,1 1610.872,610.886 L1619.287,543.409 A964.000,964.000 0.000 0,0 1579.638,539.295 Z" style="stroke-width:6.0;stroke:rgb(255,255,255);stroke-linecap:round;fill:rgb(255,21,0);" />
<path d="M1610.872,610.886 A896.000,896.000 40.000 0,1 1647.534,616.230 L1658.731,549.158 A964.000,964.000 0.000 0,0 1619.287,543.409 Z" style="stroke-width:6.0;stroke:rgb(255,255,255);stroke-linecap:round;fill:rgb(255,32,0);" />
<path d="M1647.534,616.230 A896.000,896.000 40.000 0,1 1683.945,623.085 L1697.905,556.533 A964.000,964.000 0.000 0,0 1658.731,549.158 Z" style="stroke-width:6.0;stroke:rgb(255,255,255);stroke-linecap:round;fill:rgb(255,43,0);" />
<path d="M1683.945,623.085 A896.000,896.000 40.000 0,1 1720.040,631.439 L1736.740,565.521 A964.000,964.000 0.000 0,0 1697.905,556.533 Z" style="stroke-width:6.0;stroke:rgb(255,255,255);stroke-linecap:round;fill:rgb(255,53,0);" />
<path d="M1720.040,631.439 A896.000,896.000 40.000 0,1 1755.759,641.278 L1775.170,576.107 A964.000,964.000 0.000 0,0 1736.740,565.521 Z" style="stroke-width:6.0;stroke:rgb(255,255,255);stroke-linecap:round;fill:rgb(255,64,0);" />
<path d="M1755.759,641.278 A896.000,896.000 40.000 0,1 1791.041,652.586 L1813.129,588.273 A964.000,964.000 0.000 0,0 1775.170,576.107 Z" style="stroke-width:6.0;stroke:rgb(255,255,255);stroke-linecap:round;fill:rgb(255,75,0);" />
<path d="M1791.041,652.586 A896.000,896.000 40.000 0,1 1825.826,665.342 L1850.554,601.998 A964.000,964.000 0.000 0,0 1813.129,588.273 Z" style="stroke-width:6.0;stroke:rgb(255,255,255);stroke-linecap:round;fill:rgb(255,86,0);" />
<path d="M1825.826,665.342 A896.000,896.000 40.000 0,1 1860.053,679.526 L1887.378,617.258 A964.000,964.000 0.000 0,0 1850.554,601.998 Z" style="stroke-width:6.0;stroke:rgb(255,255,255);stroke-linecap:round;fill:rgb(255,96,0);" />
<path d="M1860.053,679.526 A896.000,896.000 40.000 0,1 1893.665,695.112 L1923.541,634.027 A964.000,964.000 0.000 0,0 1887.378,617.258 Z" style="stroke-width:6.0;stroke:rgb(255,255,255);stroke-linecap:round;fill:rgb(255,107,0);" />
<path d="M1893.665,695.112 A896.000,896.000 40.000 0,1 1926.603,712.075 L1958.979,652.277 A964.000,964.000 0.000 0,0 1923.541,634.027 Z" style="stroke-width:6.0;stroke:rgb(255,255,255);stroke-linecap:round;fill:rgb(255,118,0);" />
<path d="M1926.603,712.075 A896.000,896.000 40.000 0,1 1958.812,730.385 L1993.633,671.977 A964.000,964.000 0.000 0,0 1958.979,652.277 Z" style="stroke-width:6.0;stroke:rgb(255,255,255);stroke-linecap:round;fill:rgb(255,129,0);" />
<path d="M1958.812,730.385 A896.000,896.000 40.000 0,1 1990.237,750.011 L2027.442,693.092 A964.000,964.000 0.000 0,0 1993.633,671.977 Z" style="stroke-width:6.0;stroke:rgb(255,255,255);stroke-linecap:round;fill:rgb(255,140,0);" />
<path d="M1990.237,750.011 A896.000,896.000 40.000 0,1 2020.823,770.919 L2060.350,715.587 A964.000,964.000 0.000 0,0 2027.442,693.092 Z" style="stroke-width:6.0;stroke:rgb(255,255,255);stroke-linecap:round;fill:rgb(255,150,0);" />
<path d="M2020.823,770.919 A896.000,896.000 40.000 0,1 2050.519,793.074 L2092.300,739.423 A964.000,964.000 0.000 0,0 2060.350,715.587 Z" style="stroke-width:6.0;stroke:rgb(255,255,255);stroke-linecap:round;fill:rgb(255,161,0);" />
<path d="M2050.519,793.074 A896.000,896.000 40.000 0,1 2079.274,816.437 L2123.237,764.560 A964.000,964.000 0.000 0,0 2092.300,739.423 Z" style="stroke-width:6.0;stroke:rgb(255,255,255);stroke-linecap:round;fill:rgb(255,172,0);" />
<path d="M2079.274,816.437 A896.000,896.000 40.000 0,1 2107.038,840.970 L2153.108,790.954 A964.000,964.000 0.000 0,0 2123.237,764.560 Z" style="stroke-width:6.0;stroke:rgb(255,255,255);stroke-linecap:round;fill:rgb(255,183,0);" />
<path d="M2107.038,840.970 A896.000,896.000 40.000 0,1 2133.764,866.629 L2181.862,818.561 A964.000,964.000 0.000 0,0 2153.108,790.954 Z" style="stroke-width:6.0;stroke:rgb(255,255,255);stroke-linecap:round;fill:rgb(255,193,0);" />
<path d="M2133.764,866.629 A896.000,896.000 40.000 0,1 2159.407,893.371 L2209.451,847.332 A964.000,964.000 0.000 0,0 2181.862,818.561 Z" style="stroke-width:6.0;stroke:rgb(255,255,255);stroke-linecap:round;fill:rgb(255,204,0);" />
<path d="M2159.407,893.371 A896.000,896.000 40.000 0,1 2183.922,921.150 L2235.827,877.220 A964.000,964.000 0.000 0,0 2209.451,847.332 Z" style="stroke-width:6.0;stroke:rgb(255,255,255);stroke-linecap:round;fill:rgb(255,215,0);" />
<path d="M2183.922,921.150 A896.000,896.000 40.000 0,1 2207.267,949.919 L2260.944,908.172 A964.000,964.000 0.000 0,0 2235.827,877.220 Z" style="stroke-width:6.0;stroke:rgb(255,255,255);stroke-linecap:round;fill:rgb(255,226,0);" />
</g>
<path d="M1500.000,140.000 A1360.000,1360.000 40.000 0,1 2573.531,665.056 L2589.318,652.778 A1380.000,1380.000 0.000 0,0 1500.000,120.000 Z" style="stroke-linecap:round;fill:rgb(120,18,134);" />
<text x="2119.5" y="233.4" font-size="104.0px" font-family="CMUBright-Bold" style="text-anchor:middle;fill:rgb(0,0,0);" transform="rotate(386.1,2119.5,233.4)" >VN</text>
<g id="highlighttrack_0">
<path d="M2238.331,992.375 A896.000,896.000 40.000 0,1 2258.686,1023.333 L2316.265,987.157 A964.000,964.000 0.000 0,0 2294.365,953.850 Z" style="stroke-width:6.0;stroke:rgb(255,255,255);stroke-linecap:round;fill:rgb(255,237,0);" />
<path d="M2258.686,1023.333 A896.000,896.000 40.000 0,1 2277.743,1055.105 L2336.769,1021.341 A964.000,964.000 0.000 0,0 2316.265,987.157 Z" style="stroke-width:6.0;stroke:rgb(255,255,255);stroke-linecap:round;fill:rgb(255,247,0);" />
<path d="M2277.743,1055.105 A896.000,896.000 40.000 0,1 2295.471,1087.639 L2355.842,1056.343 A964.000,964.000 0.000 0,0 2336.769,1021.341 Z" style="stroke-width:6.0;stroke:rgb(255,255,255);stroke-linecap:round;fill:rgb(251,255,0);" />
<path d="M2295.471,1087.639 A896.000,896.000 40.000 0,1 2311.839,1120.877 L2373.451,1092.104 A964.000,964.000 0.000 0,0 2355.842,1056.343 Z" style="stroke-width:6.0;stroke:rgb(255,255,255);stroke-linecap:round;fill:rgb(240,255,0);" />
<path d="M2311.839,1120.877 A896.000,896.000 40.000 0,1 2326.818,1154.764 L2389.567,1128.563 A964.000,964.000 0.000 0,0 2373.451,1092.104 Z" style="stroke-width:6.0;stroke:rgb(255,255,255);stroke-linecap:round;fill:rgb(229,255,0);" />
<path d="M2326.818,1154.764 A896.000,896.000 40.000 0,1 2340.384,1189.240 L2404.163,1165.656 A964.000,964.000 0.000 0,0 2389.567,1128.563 Z" style="stroke-width:6.0;stroke:rgb(255,255,255);stroke-linecap:round;fill:rgb(219,255,0);" />
<path d="M2340.384,1189.240 A896.000,896.000 40.000 0,1 2352.512,1224.249 L2417.212,1203.321 A964.000,964.000 0.000 0,0 2404.163,1165.656 Z" style="stroke-width:6.0;stroke:rgb(255,255,255);stroke-linecap:round;fill:rgb(208,255,0);" />
<path d="M2352.512,1224.249 A896.000,896.000 40.000 0,1 2363.183,1259.728 L2428.693,1241.493 A964.000,964.000 0.000 0,0 2417.212,1203.321 Z" style="stroke-width:6.0;stroke:rgb(255,255,255);stroke-linecap:round;fill:rgb(197,255,0);" />
<path d="M2363.183,1259.728 A896.000,896.000 40.000 0,1 2372.379,1295.619 L2438.586,1280.108 A964.000,964.000 0.000 0,0 2428.693,1241.493 Z" style="stroke-width:6.0;stroke:rgb(255,255,255);stroke-linecap:round;fill:rgb(186,255,0);" />
<path d="M2372.379,1295.619 A896.000,896.000 40.000 0,1 2380.082,1331.859 L2446.874,1319.098 A964.000,964.000 0.000 0,0 2438.586,1280.108 Z" style="stroke-width:6.0;stroke:rgb(255,255,255);stroke-linecap:round;fill:rgb(175,255,0);" />
<path d="M2380.082,1331.859 A896.000,896.000 40.000 0,1 2386.281,1368.386 L2453.543,1358.398 A964.000,964.000 0.000 0,0 2446.874,1319.098 Z" style="stroke-width:6.0;stroke:rgb(255,255,255);stroke-linecap:round;fill:rgb(165,255,0);" />
<path d="M2386.281,1368.386 A896.000,896.000 40.000 0,1 2390.964,1405.139 L2458.582,1397.940 A964.000,964.000 0.000 0,0 2453.543,1358.398 Z" style="stroke-width:6.0;stroke:rgb(255,255,255);stroke-linecap:round;fill:rgb(154,255,0);" />
<path d="M2390.964,1405.139 A896.000,896.000 40.000 0,1 2394.124,1442.054 L2461.982,1437.656 A964.000,964.000 0.000 0,0 2458.582,1397.940 Z" style="stroke-width:6.0;stroke:rgb(255,255,255);stroke-linecap:round;fill:rgb(143,255,0);" />
<path d="M2394.124,1442.054 A896.000,896.000 40.000 0,1 2395.755,1479.067 L2463.737,1477.479 A964.000,964.000 0.000 0,0 2461.982,1437.656 Z" style="stroke-width:6.0;stroke:rgb(255,255,255);stroke-linecap:round;fill:rgb(132,255,0);" />
<path d="M2395.755,1479.067 A896.000,896.000 40.000 0,1 2395.855,1516.117 L2463.844,1517.340 A964.000,964.000 0.000 0,0 2463.737,1477.479 Z" style="stroke-width:6.0;stroke:rgb(255,255,255);stroke-linecap:round;fill:rgb(122,255,0);" />
<path d="M2395.855,1516.117 A896.000,896.000 40.000 0,1 2394.423,1553.139 L2462.303,1557.172 A964.000,964.000 0.000 0,0 2463.844,1517.340 Z" style="stroke-width:6.0;stroke:rgb(255,255,255);stroke-linecap:round;fill:rgb(111,255,0);" />
<path d="M2394.423,1553.139 A896.000,896.000 40.000 0,1 2391.461,1590.070 L2459.117,1596.906 A964.000,964.000 0.000 0,0 2462.303,1557.172 Z" style="stroke-width:6.0;stroke:rgb(255,255,255);stroke-linecap:round;fill:rgb(100,255,0);" />
<path d="M2391.461,1590.070 A896.000,896.000 40.000 0,1 2386.976,1626.847 L2454.291,1636.474 A964.000,964.000 0.000 0,0 2459.117,1596.906 Z" style="stroke-width:6.0;stroke:rgb(255,255,255);stroke-linecap:round;fill:rgb(89,255,0);" />
<path d="M2386.976,1626.847 A896.000,896.000 40.000 0,1 2380.973,1663.408 L2447.833,1675.809 A964.000,964.000 0.000 0,0 2454.291,1636.474 Z" style="stroke-width:6.0;stroke:rgb(255,255,255);stroke-linecap:round;fill:rgb(79,255,0);" />
<path d="M2380.973,1663.408 A896.000,896.000 40.000 0,1 2373.465,1699.688 L2439.754,1714.843 A964.000,964.000 0.000 0,0 2447.833,1675.809 Z" style="stroke-width:6.0;stroke:rgb(255,255,255);stroke-linecap:round;fill:rgb(68,255,0);" />
<path d="M2373.465,1699.688 A896.000,896.000 40.000 0,1 2364.463,1735.628 L2430.069,1753.510 A964.000,964.000 0.000 0,0 2439.754,1714.843 Z" style="stroke-width:6.0;stroke:rgb(255,255,255);stroke-linecap:round;fill:rgb(57,255,0);" />
<path d="M2364.463,1735.628 A896.000,896.000 40.000 0,1 2353.982,1771.164 L2418.794,1791.744 A964.000,964.000 0.000 0,0 2430.069,1753.510 Z" style="stroke-width:6.0;stroke:rgb(255,255,255);stroke-linecap:round;fill:rgb(46,255,0);" />
<path d="M2353.982,1771.164 A896.000,896.000 40.000 0,1 2342.042,1806.237 L2405.947,1829.478 A964.000,964.000 0.000 0,0 2418.794,1791.744 Z" style="stroke-width:6.0;stroke:rgb(255,255,255);stroke-linecap:round;fill:rgb(35,255,0);" />
<path d="M2342.042,1806.237 A896.000,896.000 40.000 0,1 2328.662,1840.787 L2391.551,1866.650 A964.000,964.000 0.000 0,0 2405.947,1829.478 Z" style="stroke-width:6.0;stroke:rgb(255,255,255);stroke-linecap:round;fill:rgb(25,255,0);" />
<path d="M2328.662,1840.787 A896.000,896.000 40.000 0,1 2313.865,1874.753 L2375.631,1903.194 A964.000,964.000 0.000 0,0 2391.551,1866.650 Z" style="stroke-width:6.0;stroke:rgb(255,255,255);stroke-linecap:round;fill:rgb(14,255,0);" />
<path d="M2313.865,1874.753 A896.000,896.000 40.000 0,1 2297.676,1908.079 L2358.214,1939.049 A964.000,964.000 0.000 0,0 2375.631,1903.194 Z" style="stroke-width:6.0;stroke:rgb(255,255,255);stroke-linecap:round;fill:rgb(3,255,0);" />
<path d="M2297.676,1908.079 A896.000,896.000 40.000 0,1 2280.124,1940.707 L2339.330,1974.154 A964.000,964.000 0.000 0,0 2358.214,1939.049 Z" style="stroke-width:6.0;stroke:rgb(255,255,255);stroke-linecap:round;fill:rgb(0,255,7);" />
<path d="M2280.124,1940.707 A896.000,896.000 40.000 0,1 2261.238,1972.582 L2319.010,2008.447 A964.000,964.000 0.000 0,0 2339.330,1974.154 Z" style="stroke-width:6.0;stroke:rgb(255,255,255);stroke-linecap:round;fill:rgb(0,255,17);" />
<path d="M2261.238,1972.582 A896.000,896.000 40.000 0,1 2241.050,2003.648 L2297.290,2041.871 A964.000,964.000 0.000 0,0 2319.010,2008.447 Z" style="stroke-width:6.0;stroke:rgb(255,255,255);stroke-linecap:round;fill:rgb(0,255,28);" />
</g>
<path d="M2620.682,729.498 A1360.000,1360.000 40.000 0,1 2624.807,2264.466 L2641.349,2275.708 A1380.000,1380.000 0.000 0,0 2637.162,718.167 Z" style="stroke-linecap:round;fill:rgb(70,130,180);" />
<text x="2910.0" y="1496.2" font-size="104.0px" font-family="CMUBright-Bold" style="text-anchor:middle;fill:rgb(0,0,0);" transform="rotate(449.8,2910.0,1496.2)" >SMN</text>
<g id="highlighttrack_0">
<path d="M2210.214,2046.271 A896.000,896.000 40.000 0,1 2187.024,2075.165 L2239.164,2118.816 A964.000,964.000 0.000 0,0 2264.115,2087.729 Z" style="stroke-width:6.0;stroke:rgb(255,255,255);stroke-linecap:round;fill:rgb(0,255,39);" />
<path d="M2187.024,2075.165 A896.000,896.000 40.000 0,1 2162.658,2103.075 L2212.949,2148.845 A964.000,964.000 0.000 0,0 2239.164,2118.816 Z" style="stroke-width:6.0;stroke:rgb(255,255,255);stroke-linecap:round;fill:rgb(0,255,50);" />
<path d="M2162.658,2103.075 A896.000,896.000 40.000 0,1 2137.160,2129.955 L2185.516,2177.764 A964.000,964.000 0.000 0,0 2212.949,2148.845 Z" style="stroke-width:6.0;stroke:rgb(255,255,255);stroke-linecap:round;fill:rgb(0,255,61);" />
<path d="M2137.160,2129.955 A896.000,896.000 40.000 0,1 2110.572,2155.757 L2156.910,2205.525 A964.000,964.000 0.000 0,0 2185.516,2177.764 Z" style="stroke-width:6.0;stroke:rgb(255,255,255);stroke-linecap:round;fill:rgb(0,255,71);" />
<path d="M2110.572,2155.757 A896.000,896.000 40.000 0,1 2082.940,2180.439 L2127.181,2232.079 A964.000,964.000 0.000 0,0 2156.910,2205.525 Z" style="stroke-width:6.0;stroke:rgb(255,255,255);stroke-linecap:round;fill:rgb(0,255,82);" />
<path d="M2082.940,2180.439 A896.000,896.000 40.000 0,1 2054.312,2203.956 L2096.380,2257.382 A964.000,964.000 0.000 0,0 2127.181,2232.079 Z" style="stroke-width:6.0;stroke:rgb(255,255,255);stroke-linecap:round;fill:rgb(0,255,93);" />
<path d="M2054.312,2203.956 A896.000,896.000 40.000 0,1 2024.735,2226.271 L2064.559,2281.389 A964.000,964.000 0.000 0,0 2096.380,2257.382 Z" style="stroke-width:6.0;stroke:rgb(255,255,255);stroke-linecap:round;fill:rgb(0,255,104);" />
<path d="M2024.735,2226.271 A896.000,896.000 40.000 0,1 1994.262,2247.343 L2031.773,2304.061 A964.000,964.000 0.000 0,0 2064.559,2281.389 Z" style="stroke-width:6.0;stroke:rgb(255,255,255);stroke-linecap:round;fill:rgb(0,255,114);" />
<path d="M1994.262,2247.343 A896.000,896.000 40.000 0,1 1962.943,2267.137 L1998.077,2325.358 A964.000,964.000 0.000 0,0 2031.773,2304.061 Z" style="stroke-width:6.0;stroke:rgb(255,255,255);stroke-linecap:round;fill:rgb(0,255,125);" />
<path d="M1962.943,2267.137 A896.000,896.000 40.000 0,1 1930.833,2285.620 L1963.530,2345.243 A964.000,964.000 0.000 0,0 1998.077,2325.358 Z" style="stroke-width:6.0;stroke:rgb(255,255,255);stroke-linecap:round;fill:rgb(0,255,136);" />
<path d="M1930.833,2285.620 A896.000,896.000 40.000 0,1 1897.986,2302.760 L1928.190,2363.683 A964.000,964.000 0.000 0,0 1963.530,2345.243 Z" style="stroke-width:6.0;stroke:rgb(255,255,255);stroke-linecap:round;fill:rgb(0,255,147);" />
<path d="M1897.986,2302.760 A896.000,896.000 40.000 0,1 1864.459,2318.527 L1892.118,2380.647 A964.000,964.000 0.000 0,0 1928.190,2363.683 Z" style="stroke-width:6.0;stroke:rgb(255,255,255);stroke-linecap:round;fill:rgb(0,255,158);" />
<path d="M1864.459,2318.527 A896.000,896.000 40.000 0,1 1830.308,2332.894 L1855.376,2396.105 A964.000,964.000 0.000 0,0 1892.118,2380.647 Z" style="stroke-width:6.0;stroke:rgb(255,255,255);stroke-linecap:round;fill:rgb(0,255,168);" />
<path d="M1830.308,2332.894 A896.000,896.000 40.000 0,1 1795.593,2345.837 L1818.026,2410.030 A964.000,964.000 0.000 0,0 1855.376,2396.105 Z" style="stroke-width:6.0;stroke:rgb(255,255,255);stroke-linecap:round;fill:rgb(0,255,179);" />
</g>
<path d="M2578.004,2329.161 A1360.000,1360.000 40.000 0,1 1948.668,2783.860 L1955.266,2802.741 A1380.000,1380.000 0.000 0,0 2593.857,2341.354 Z" style="stroke-linecap:round;fill:rgb(0,118,14);" />
<text x="2368.5" y="2702.1" font-size="104.0px" font-family="CMUBright-Bold" style="text-anchor:middle;fill:rgb(0,0,0);" transform="rotate(-35.8,2368.5,2702.1)" >DAN</text>
<g id="highlighttrack_0">
<path d="M1745.443,2361.727 A896.000,896.000 40.000 0,1 1709.608,2371.137 L1725.516,2437.250 A964.000,964.000 0.000 0,0 1764.070,2427.126 Z" style="stroke-width:6.0;stroke:rgb(255,255,255);stroke-linecap:round;fill:rgb(0,255,190);" />
<path d="M1709.608,2371.137 A896.000,896.000 40.000 0,1 1673.415,2379.058 L1686.576,2445.772 A964.000,964.000 0.000 0,0 1725.516,2437.250 Z" style="stroke-width:6.0;stroke:rgb(255,255,255);stroke-linecap:round;fill:rgb(0,255,201);" />
<path d="M1673.415,2379.058 A896.000,896.000 40.000 0,1 1636.926,2385.476 L1647.317,2452.677 A964.000,964.000 0.000 0,0 1686.576,2445.772 Z" style="stroke-width:6.0;stroke:rgb(255,255,255);stroke-linecap:round;fill:rgb(0,255,211);" />
<path d="M1636.926,2385.476 A896.000,896.000 40.000 0,1 1600.202,2390.379 L1607.806,2457.953 A964.000,964.000 0.000 0,0 1647.317,2452.677 Z" style="stroke-width:6.0;stroke:rgb(255,255,255);stroke-linecap:round;fill:rgb(0,255,222);" />
<path d="M1600.202,2390.379 A896.000,896.000 40.000 0,1 1563.307,2393.761 L1568.111,2461.591 A964.000,964.000 0.000 0,0 1607.806,2457.953 Z" style="stroke-width:6.0;stroke:rgb(255,255,255);stroke-linecap:round;fill:rgb(0,255,233);" />
<path d="M1563.307,2393.761 A896.000,896.000 40.000 0,1 1526.303,2395.614 L1528.300,2463.585 A964.000,964.000 0.000 0,0 1568.111,2461.591 Z" style="stroke-width:6.0;stroke:rgb(255,255,255);stroke-linecap:round;fill:rgb(0,255,244);" />
<path d="M1526.303,2395.614 A896.000,896.000 40.000 0,1 1489.255,2395.936 L1488.440,2463.931 A964.000,964.000 0.000 0,0 1528.300,2463.585 Z" style="stroke-width:6.0;stroke:rgb(255,255,255);stroke-linecap:round;fill:rgb(0,255,255);" />
<path d="M1489.255,2395.936 A896.000,896.000 40.000 0,1 1452.225,2394.725 L1448.599,2462.629 A964.000,964.000 0.000 0,0 1488.440,2463.931 Z" style="stroke-width:6.0;stroke:rgb(255,255,255);stroke-linecap:round;fill:rgb(0,244,255);" />
<path d="M1452.225,2394.725 A896.000,896.000 40.000 0,1 1415.277,2391.985 L1408.847,2459.681 A964.000,964.000 0.000 0,0 1448.599,2462.629 Z" style="stroke-width:6.0;stroke:rgb(255,255,255);stroke-linecap:round;fill:rgb(0,233,255);" />
<path d="M1415.277,2391.985 A896.000,896.000 40.000 0,1 1378.473,2387.720 L1369.250,2455.092 A964.000,964.000 0.000 0,0 1408.847,2459.681 Z" style="stroke-width:6.0;stroke:rgb(255,255,255);stroke-linecap:round;fill:rgb(0,222,255);" />
<path d="M1378.473,2387.720 A896.000,896.000 40.000 0,1 1341.878,2381.937 L1329.878,2448.870 A964.000,964.000 0.000 0,0 1369.250,2455.092 Z" style="stroke-width:6.0;stroke:rgb(255,255,255);stroke-linecap:round;fill:rgb(0,211,255);" />
<path d="M1341.878,2381.937 A896.000,896.000 40.000 0,1 1305.553,2374.646 L1290.795,2441.026 A964.000,964.000 0.000 0,0 1329.878,2448.870 Z" style="stroke-width:6.0;stroke:rgb(255,255,255);stroke-linecap:round;fill:rgb(0,201,255);" />
<path d="M1305.553,2374.646 A896.000,896.000 40.000 0,1 1269.560,2365.860 L1252.071,2431.572 A964.000,964.000 0.000 0,0 1290.795,2441.026 Z" style="stroke-width:6.0;stroke:rgb(255,255,255);stroke-linecap:round;fill:rgb(0,190,255);" />
<path d="M1269.560,2365.860 A896.000,896.000 40.000 0,1 1233.961,2355.593 L1213.771,2420.526 A964.000,964.000 0.000 0,0 1252.071,2431.572 Z" style="stroke-width:6.0;stroke:rgb(255,255,255);stroke-linecap:round;fill:rgb(0,179,255);" />
<path d="M1233.961,2355.593 A896.000,896.000 40.000 0,1 1198.817,2343.863 L1175.960,2407.906 A964.000,964.000 0.000 0,0 1213.771,2420.526 Z" style="stroke-width:6.0;stroke:rgb(255,255,255);stroke-linecap:round;fill:rgb(0,168,255);" />
<path d="M1198.817,2343.863 A896.000,896.000 40.000 0,1 1164.188,2330.690 L1138.703,2393.734 A964.000,964.000 0.000 0,0 1175.960,2407.906 Z" style="stroke-width:6.0;stroke:rgb(255,255,255);stroke-linecap:round;fill:rgb(0,158,255);" />
</g>
<path d="M1872.548,2807.979 A1360.000,1360.000 40.000 0,1 990.286,2760.869 L982.790,2779.412 A1380.000,1380.000 0.000 0,0 1878.026,2827.214 Z" style="stroke-linecap:round;fill:rgb(196,58,250);" />
<text x="1420.9" y="2980.9" font-size="104.0px" font-family="CMUBright-Bold" style="text-anchor:middle;fill:rgb(0,0,0);" transform="rotate(3.1,1420.9,2980.9)" >VAN</text>
<g id="highlighttrack_0">
<path d="M1116.016,2309.551 A896.000,896.000 40.000 0,1 1082.876,2292.984 L1051.220,2353.166 A964.000,964.000 0.000 0,0 1086.874,2370.990 Z" style="stroke-width:6.0;stroke:rgb(255,255,255);stroke-linecap:round;fill:rgb(0,147,255);" />
<path d="M1082.876,2292.984 A896.000,896.000 40.000 0,1 1050.450,2275.062 L1016.332,2333.883 A964.000,964.000 0.000 0,0 1051.220,2353.166 Z" style="stroke-width:6.0;stroke:rgb(255,255,255);stroke-linecap:round;fill:rgb(0,136,255);" />
<path d="M1050.450,2275.062 A896.000,896.000 40.000 0,1 1018.792,2255.814 L982.272,2313.175 A964.000,964.000 0.000 0,0 1016.332,2333.883 Z" style="stroke-width:6.0;stroke:rgb(255,255,255);stroke-linecap:round;fill:rgb(0,125,255);" />
<path d="M1018.792,2255.814 A896.000,896.000 40.000 0,1 987.957,2235.274 L949.097,2291.076 A964.000,964.000 0.000 0,0 982.272,2313.175 Z" style="stroke-width:6.0;stroke:rgb(255,255,255);stroke-linecap:round;fill:rgb(0,114,255);" />
<path d="M987.957,2235.274 A896.000,896.000 40.000 0,1 957.998,2213.477 L916.864,2267.625 A964.000,964.000 0.000 0,0 949.097,2291.076 Z" style="stroke-width:6.0;stroke:rgb(255,255,255);stroke-linecap:round;fill:rgb(0,104,255);" />
<path d="M957.998,2213.477 A896.000,896.000 40.000 0,1 928.965,2190.460 L885.628,2242.861 A964.000,964.000 0.000 0,0 916.864,2267.625 Z" style="stroke-width:6.0;stroke:rgb(255,255,255);stroke-linecap:round;fill:rgb(0,93,255);" />
<path d="M928.965,2190.460 A896.000,896.000 40.000 0,1 900.909,2166.263 L855.442,2216.827 A964.000,964.000 0.000 0,0 885.628,2242.861 Z" style="stroke-width:6.0;stroke:rgb(255,255,255);stroke-linecap:round;fill:rgb(0,82,255);" />
</g>
<path d="M917.167,2728.782 A1360.000,1360.000 40.000 0,1 590.665,2511.291 L577.293,2526.163 A1380.000,1380.000 0.000 0,0 908.596,2746.853 Z" style="stroke-linecap:round;fill:rgb(220,248,164);" />
<text x="675.6" y="2737.6" font-size="104.0px" font-family="CMUBright-Bold" style="text-anchor:middle;fill:rgb(0,0,0);" transform="rotate(33.7,675.6,2737.6)" >SC</text>
<g id="highlighttrack_0">
<path d="M862.840,2129.955 A896.000,896.000 40.000 0,1 837.342,2103.075 L787.051,2148.845 A964.000,964.000 0.000 0,0 814.484,2177.764 Z" style="stroke-width:6.0;stroke:rgb(255,255,255);stroke-linecap:round;fill:rgb(0,71,255);" />
<path d="M837.342,2103.075 A896.000,896.000 40.000 0,1 812.976,2075.165 L760.836,2118.816 A964.000,964.000 0.000 0,0 787.051,2148.845 Z" style="stroke-width:6.0;stroke:rgb(255,255,255);stroke-linecap:round;fill:rgb(0,61,255);" />
<path d="M812.976,2075.165 A896.000,896.000 40.000 0,1 789.786,2046.271 L735.885,2087.729 A964.000,964.000 0.000 0,0 760.836,2118.816 Z" style="stroke-width:6.0;stroke:rgb(255,255,255);stroke-linecap:round;fill:rgb(0,50,255);" />
<path d="M789.786,2046.271 A896.000,896.000 40.000 0,1 767.809,2016.442 L712.241,2055.637 A964.000,964.000 0.000 0,0 735.885,2087.729 Z" style="stroke-width:6.0;stroke:rgb(255,255,255);stroke-linecap:round;fill:rgb(0,39,255);" />
<path d="M767.809,2016.442 A896.000,896.000 40.000 0,1 747.085,1985.731 L689.944,2022.595 A964.000,964.000 0.000 0,0 712.241,2055.637 Z" style="stroke-width:6.0;stroke:rgb(255,255,255);stroke-linecap:round;fill:rgb(0,28,255);" />
<path d="M747.085,1985.731 A896.000,896.000 40.000 0,1 727.648,1954.189 L669.032,1988.659 A964.000,964.000 0.000 0,0 689.944,2022.595 Z" style="stroke-width:6.0;stroke:rgb(255,255,255);stroke-linecap:round;fill:rgb(0,17,255);" />
<path d="M727.648,1954.189 A896.000,896.000 40.000 0,1 709.531,1921.871 L649.540,1953.888 A964.000,964.000 0.000 0,0 669.032,1988.659 Z" style="stroke-width:6.0;stroke:rgb(255,255,255);stroke-linecap:round;fill:rgb(0,7,255);" />
<path d="M709.531,1921.871 A896.000,896.000 40.000 0,1 692.766,1888.831 L631.503,1918.341 A964.000,964.000 0.000 0,0 649.540,1953.888 Z" style="stroke-width:6.0;stroke:rgb(255,255,255);stroke-linecap:round;fill:rgb(3,0,255);" />
<path d="M692.766,1888.831 A896.000,896.000 40.000 0,1 677.382,1855.127 L614.951,1882.078 A964.000,964.000 0.000 0,0 631.503,1918.341 Z" style="stroke-width:6.0;stroke:rgb(255,255,255);stroke-linecap:round;fill:rgb(14,0,255);" />
<path d="M677.382,1855.127 A896.000,896.000 40.000 0,1 663.404,1820.815 L599.912,1845.163 A964.000,964.000 0.000 0,0 614.951,1882.078 Z" style="stroke-width:6.0;stroke:rgb(255,255,255);stroke-linecap:round;fill:rgb(25,0,255);" />
<path d="M663.404,1820.815 A896.000,896.000 40.000 0,1 650.856,1785.955 L586.412,1807.657 A964.000,964.000 0.000 0,0 599.912,1845.163 Z" style="stroke-width:6.0;stroke:rgb(255,255,255);stroke-linecap:round;fill:rgb(35,0,255);" />
<path d="M650.856,1785.955 A896.000,896.000 40.000 0,1 639.760,1750.606 L574.474,1769.625 A964.000,964.000 0.000 0,0 586.412,1807.657 Z" style="stroke-width:6.0;stroke:rgb(255,255,255);stroke-linecap:round;fill:rgb(46,0,255);" />
<path d="M639.760,1750.606 A896.000,896.000 40.000 0,1 630.135,1714.828 L564.119,1731.132 A964.000,964.000 0.000 0,0 574.474,1769.625 Z" style="stroke-width:6.0;stroke:rgb(255,255,255);stroke-linecap:round;fill:rgb(57,0,255);" />
<path d="M630.135,1714.828 A896.000,896.000 40.000 0,1 621.998,1678.683 L555.363,1692.244 A964.000,964.000 0.000 0,0 564.119,1731.132 Z" style="stroke-width:6.0;stroke:rgb(255,255,255);stroke-linecap:round;fill:rgb(68,0,255);" />
<path d="M621.998,1678.683 A896.000,896.000 40.000 0,1 615.361,1642.233 L548.223,1653.027 A964.000,964.000 0.000 0,0 555.363,1692.244 Z" style="stroke-width:6.0;stroke:rgb(255,255,255);stroke-linecap:round;fill:rgb(79,0,255);" />
<path d="M615.361,1642.233 A896.000,896.000 40.000 0,1 610.237,1605.539 L542.711,1613.549 A964.000,964.000 0.000 0,0 548.223,1653.027 Z" style="stroke-width:6.0;stroke:rgb(255,255,255);stroke-linecap:round;fill:rgb(89,0,255);" />
<path d="M610.237,1605.539 A896.000,896.000 40.000 0,1 606.635,1568.665 L538.835,1573.876 A964.000,964.000 0.000 0,0 542.711,1613.549 Z" style="stroke-width:6.0;stroke:rgb(255,255,255);stroke-linecap:round;fill:rgb(100,0,255);" />
<path d="M606.635,1568.665 A896.000,896.000 40.000 0,1 604.560,1531.673 L536.602,1534.077 A964.000,964.000 0.000 0,0 538.835,1573.876 Z" style="stroke-width:6.0;stroke:rgb(255,255,255);stroke-linecap:round;fill:rgb(111,0,255);" />
<path d="M604.560,1531.673 A896.000,896.000 40.000 0,1 604.016,1494.627 L536.017,1494.220 A964.000,964.000 0.000 0,0 536.602,1534.077 Z" style="stroke-width:6.0;stroke:rgb(255,255,255);stroke-linecap:round;fill:rgb(122,0,255);" />
<path d="M604.016,1494.627 A896.000,896.000 40.000 0,1 605.004,1457.591 L537.080,1454.372 A964.000,964.000 0.000 0,0 536.017,1494.220 Z" style="stroke-width:6.0;stroke:rgb(255,255,255);stroke-linecap:round;fill:rgb(132,0,255);" />
<path d="M605.004,1457.591 A896.000,896.000 40.000 0,1 607.523,1420.627 L539.790,1414.603 A964.000,964.000 0.000 0,0 537.080,1454.372 Z" style="stroke-width:6.0;stroke:rgb(255,255,255);stroke-linecap:round;fill:rgb(143,0,255);" />
</g>
<path d="M532.882,2456.182 A1360.000,1360.000 40.000 0,1 145.347,1379.523 L125.425,1377.751 A1380.000,1380.000 0.000 0,0 518.660,2470.243 Z" style="stroke-linecap:round;fill:rgb(230,148,34);" />
<text x="104.6" y="2002.3" font-size="104.0px" font-family="CMUBright-Bold" style="text-anchor:middle;fill:rgb(0,0,0);" transform="rotate(70.2,104.6,2002.3)" >FPN</text>
<g id="highlighttrack_0">
<path d="M613.719,1368.386 A896.000,896.000 40.000 0,1 619.918,1331.859 L553.126,1319.098 A964.000,964.000 0.000 0,0 546.457,1358.398 Z" style="stroke-width:6.0;stroke:rgb(255,255,255);stroke-linecap:round;fill:rgb(154,0,255);" />
<path d="M619.918,1331.859 A896.000,896.000 40.000 0,1 627.621,1295.619 L561.414,1280.108 A964.000,964.000 0.000 0,0 553.126,1319.098 Z" style="stroke-width:6.0;stroke:rgb(255,255,255);stroke-linecap:round;fill:rgb(165,0,255);" />
<path d="M627.621,1295.619 A896.000,896.000 40.000 0,1 636.817,1259.728 L571.307,1241.493 A964.000,964.000 0.000 0,0 561.414,1280.108 Z" style="stroke-width:6.0;stroke:rgb(255,255,255);stroke-linecap:round;fill:rgb(175,0,255);" />
<path d="M636.817,1259.728 A896.000,896.000 40.000 0,1 647.488,1224.249 L582.788,1203.321 A964.000,964.000 0.000 0,0 571.307,1241.493 Z" style="stroke-width:6.0;stroke:rgb(255,255,255);stroke-linecap:round;fill:rgb(186,0,255);" />
<path d="M647.488,1224.249 A896.000,896.000 40.000 0,1 659.616,1189.240 L595.837,1165.656 A964.000,964.000 0.000 0,0 582.788,1203.321 Z" style="stroke-width:6.0;stroke:rgb(255,255,255);stroke-linecap:round;fill:rgb(197,0,255);" />
<path d="M659.616,1189.240 A896.000,896.000 40.000 0,1 673.182,1154.764 L610.433,1128.563 A964.000,964.000 0.000 0,0 595.837,1165.656 Z" style="stroke-width:6.0;stroke:rgb(255,255,255);stroke-linecap:round;fill:rgb(208,0,255);" />
<path d="M673.182,1154.764 A896.000,896.000 40.000 0,1 688.161,1120.877 L626.549,1092.104 A964.000,964.000 0.000 0,0 610.433,1128.563 Z" style="stroke-width:6.0;stroke:rgb(255,255,255);stroke-linecap:round;fill:rgb(219,0,255);" />
<path d="M688.161,1120.877 A896.000,896.000 40.000 0,1 704.529,1087.639 L644.158,1056.343 A964.000,964.000 0.000 0,0 626.549,1092.104 Z" style="stroke-width:6.0;stroke:rgb(255,255,255);stroke-linecap:round;fill:rgb(229,0,255);" />
<path d="M704.529,1087.639 A896.000,896.000 40.000 0,1 722.257,1055.105 L663.231,1021.341 A964.000,964.000 0.000 0,0 644.158,1056.343 Z" style="stroke-width:6.0;stroke:rgb(255,255,255);stroke-linecap:round;fill:rgb(240,0,255);" />
<path d="M722.257,1055.105 A896.000,896.000 40.000 0,1 741.314,1023.333 L683.735,987.157 A964.000,964.000 0.000 0,0 663.231,1021.341 Z" style="stroke-width:6.0;stroke:rgb(255,255,255);stroke-linecap:round;fill:rgb(251,0,255);" />
<path d="M741.314,1023.333 A896.000,896.000 40.000 0,1 761.669,992.375 L705.635,953.850 A964.000,964.000 0.000 0,0 683.735,987.157 Z" style="stroke-width:6.0;stroke:rgb(255,255,255);stroke-linecap:round;fill:rgb(255,0,247);" />
<path d="M761.669,992.375 A896.000,896.000 40.000 0,1 783.286,962.286 L728.892,921.477 A964.000,964.000 0.000 0,0 705.635,953.850 Z" style="stroke-width:6.0;stroke:rgb(255,255,255);stroke-linecap:round;fill:rgb(255,0,237);" />
<path d="M783.286,962.286 A896.000,896.000 40.000 0,1 806.128,933.116 L753.468,890.093 A964.000,964.000 0.000 0,0 728.892,921.477 Z" style="stroke-width:6.0;stroke:rgb(255,255,255);stroke-linecap:round;fill:rgb(255,0,226);" />
<path d="M806.128,933.116 A896.000,896.000 40.000 0,1 830.157,904.915 L779.321,859.752 A964.000,964.000 0.000 0,0 753.468,890.093 Z" style="stroke-width:6.0;stroke:rgb(255,255,255);stroke-linecap:round;fill:rgb(255,0,215);" />
<path d="M830.157,904.915 A896.000,896.000 40.000 0,1 855.331,877.731 L806.406,830.505 A964.000,964.000 0.000 0,0 779.321,859.752 Z" style="stroke-width:6.0;stroke:rgb(255,255,255);stroke-linecap:round;fill:rgb(255,0,204);" />
<path d="M855.331,877.731 A896.000,896.000 40.000 0,1 881.608,851.612 L834.676,802.404 A964.000,964.000 0.000 0,0 806.406,830.505 Z" style="stroke-width:6.0;stroke:rgb(255,255,255);stroke-linecap:round;fill:rgb(255,0,193);" />
<path d="M881.608,851.612 A896.000,896.000 40.000 0,1 908.942,826.601 L864.085,775.495 A964.000,964.000 0.000 0,0 834.676,802.404 Z" style="stroke-width:6.0;stroke:rgb(255,255,255);stroke-linecap:round;fill:rgb(255,0,183);" />
<path d="M908.942,826.601 A896.000,896.000 40.000 0,1 937.286,802.742 L894.580,749.825 A964.000,964.000 0.000 0,0 864.085,775.495 Z" style="stroke-width:6.0;stroke:rgb(255,255,255);stroke-linecap:round;fill:rgb(255,0,172);" />
<path d="M937.286,802.742 A896.000,896.000 40.000 0,1 966.593,780.074 L926.111,725.437 A964.000,964.000 0.000 0,0 894.580,749.825 Z" style="stroke-width:6.0;stroke:rgb(255,255,255);stroke-linecap:round;fill:rgb(255,0,161);" />
<path d="M966.593,780.074 A896.000,896.000 40.000 0,1 996.812,758.638 L958.623,702.374 A964.000,964.000 0.000 0,0 926.111,725.437 Z" style="stroke-width:6.0;stroke:rgb(255,255,255);stroke-linecap:round;fill:rgb(255,0,150);" />
<path d="M996.812,758.638 A896.000,896.000 40.000 0,1 1027.891,738.469 L992.061,680.675 A964.000,964.000 0.000 0,0 958.623,702.374 Z" style="stroke-width:6.0;stroke:rgb(255,255,255);stroke-linecap:round;fill:rgb(255,0,140);" />
<path d="M1027.891,738.469 A896.000,896.000 40.000 0,1 1059.777,719.603 L1026.367,660.376 A964.000,964.000 0.000 0,0 992.061,680.675 Z" style="stroke-width:6.0;stroke:rgb(255,255,255);stroke-linecap:round;fill:rgb(255,0,129);" />
<path d="M1059.777,719.603 A896.000,896.000 40.000 0,1 1092.416,702.071 L1061.483,641.514 A964.000,964.000 0.000 0,0 1026.367,660.376 Z" style="stroke-width:6.0;stroke:rgb(255,255,255);stroke-linecap:round;fill:rgb(255,0,118);" />
<path d="M1092.416,702.071 A896.000,896.000 40.000 0,1 1125.752,685.903 L1097.349,624.119 A964.000,964.000 0.000 0,0 1061.483,641.514 Z" style="stroke-width:6.0;stroke:rgb(255,255,255);stroke-linecap:round;fill:rgb(255,0,107);" />
<path d="M1125.752,685.903 A896.000,896.000 40.000 0,1 1159.728,671.127 L1133.903,608.221 A964.000,964.000 0.000 0,0 1097.349,624.119 Z" style="stroke-width:6.0;stroke:rgb(255,255,255);stroke-linecap:round;fill:rgb(255,0,96);" />
<path d="M1159.728,671.127 A896.000,896.000 40.000 0,1 1194.285,657.768 L1171.084,593.849 A964.000,964.000 0.000 0,0 1133.903,608.221 Z" style="stroke-width:6.0;stroke:rgb(255,255,255);stroke-linecap:round;fill:rgb(255,0,86);" />
<path d="M1194.285,657.768 A896.000,896.000 40.000 0,1 1229.365,645.850 L1208.826,581.026 A964.000,964.000 0.000 0,0 1171.084,593.849 Z" style="stroke-width:6.0;stroke:rgb(255,255,255);stroke-linecap:round;fill:rgb(255,0,75);" />
<path d="M1229.365,645.850 A896.000,896.000 40.000 0,1 1264.908,635.391 L1247.067,569.774 A964.000,964.000 0.000 0,0 1208.826,581.026 Z" style="stroke-width:6.0;stroke:rgb(255,255,255);stroke-linecap:round;fill:rgb(255,0,64);" />
<path d="M1264.908,635.391 A896.000,896.000 40.000 0,1 1300.853,626.412 L1285.740,560.113 A964.000,964.000 0.000 0,0 1247.067,569.774 Z" style="stroke-width:6.0;stroke:rgb(255,255,255);stroke-linecap:round;fill:rgb(255,0,53);" />
<path d="M1300.853,626.412 A896.000,896.000 40.000 0,1 1337.139,618.925 L1324.779,552.058 A964.000,964.000 0.000 0,0 1285.740,560.113 Z" style="stroke-width:6.0;stroke:rgb(255,255,255);stroke-linecap:round;fill:rgb(255,0,43);" />
<path d="M1337.139,618.925 A896.000,896.000 40.000 0,1 1373.703,612.946 L1364.118,545.625 A964.000,964.000 0.000 0,0 1324.779,552.058 Z" style="stroke-width:6.0;stroke:rgb(255,255,255);stroke-linecap:round;fill:rgb(255,0,32);" />
<path d="M1373.703,612.946 A896.000,896.000 40.000 0,1 1410.483,608.483 L1403.689,540.823 A964.000,964.000 0.000 0,0 1364.118,545.625 Z" style="stroke-width:6.0;stroke:rgb(255,255,255);stroke-linecap:round;fill:rgb(255,0,21);" />
<path d="M1410.483,608.483 A896.000,896.000 40.000 0,1 1447.416,605.544 L1443.425,537.662 A964.000,964.000 0.000 0,0 1403.689,540.823 Z" style="stroke-width:6.0;stroke:rgb(255,255,255);stroke-linecap:round;fill:rgb(255,0,10);" />
</g>
<path d="M154.752,1300.229 A1360.000,1360.000 40.000 0,1 1420.185,142.344 L1419.011,122.379 A1380.000,1380.000 0.000 0,0 134.969,1297.291 Z" style="stroke-linecap:round;fill:rgb(205,62,78);" />
<text x="548.2" y="459.8" font-size="104.0px" font-family="CMUBright-Bold" style="text-anchor:middle;fill:rgb(0,0,0);" transform="rotate(-42.5,548.2,459.8)" >DMN</text>
</g>
<g id="track_0">
<path d="M 2061.689,837.188 A 868.800,868.800 0.00 0,1 2065.1,840.1 L 2065.1,840.1 2043.3,865.7 2022.0,891.5 2001.3,917.2 1981.4,942.7 1962.3,967.9 1944.4,992.5 1927.7,1016.6 1912.2,1039.9 1898.3,1062.4 1885.8,1084.0 1875.0,1104.6 1866.0,1124.0 1858.7,1142.2 1853.3,1159.2 1849.7,1174.9 1848.1,1189.2 1848.5,1202.1 1850.9,1213.5 1855.3,1223.4 1861.7,1231.8 1870.1,1238.7 1880.4,1244.0 1892.7,1247.9 1906.9,1250.2 1922.9,1251.0 1940.8,1250.3 1960.3,1248.1 1981.5,1244.6 2004.1,1239.7 2028.3,1233.5 2053.7,1226.1 2080.3,1217.5 2108.0,1207.8 2136.5,1197.1 2165.9,1185.5 2195.8,1173.2 2226.1,1160.1 2256.6,1146.5 2287.2,1132.4  A 868.800,868.800 0.00 0,1 2289.1,1136.4 L 2289.1,1136.4 2258.4,1150.3 2227.8,1163.8 2197.4,1176.7 2167.4,1188.9 2137.9,1200.3 2109.3,1210.8 2081.5,1220.3 2054.8,1228.7 2029.2,1235.9 2005.0,1241.9 1982.2,1246.6 1960.9,1250.0 1941.2,1251.9 1923.3,1252.4 1907.1,1251.4 1892.8,1248.9 1880.3,1244.9 1869.8,1239.3 1861.3,1232.2 1854.8,1223.6 1850.2,1213.5 1847.7,1201.9 1847.2,1188.8 1848.6,1174.4 1852.0,1158.5 1857.2,1141.4 1864.4,1122.9 1873.3,1103.3 1883.9,1082.6 1896.2,1060.9 1910.0,1038.2 1925.3,1014.7 1941.9,990.5 1959.6,965.7 1978.5,940.4 1998.3,914.7 2018.9,888.9 2040.1,863.0 2061.7,837.2  Z" style="stroke-width: 0.0;  fill: rgb(31,255,223);" />
<path d="M 2065.152,840.139 A 868.800,868.800 0.00 0,1 2067.1,841.8 L 2067.1,841.8 2045.2,867.6 2023.8,893.5 2003.0,919.5 1983.1,945.4 1964.2,971.1 1946.4,996.4 1929.8,1021.3 1914.7,1045.5 1901.0,1069.1 1889.0,1091.9 1878.7,1113.8 1870.2,1134.8 1863.5,1154.7 1858.7,1173.6 1855.9,1191.2 1855.1,1207.7 1856.4,1222.9 1859.7,1236.9 1865.1,1249.4 1872.6,1260.7 1882.1,1270.5 1893.6,1279.0 1907.2,1286.0 1922.6,1291.7 1940.0,1296.0 1959.2,1298.9 1980.2,1300.5 2002.9,1300.8 2027.1,1299.8 2052.7,1297.5 2079.8,1294.1 2108.0,1289.5 2137.3,1283.9 2167.5,1277.3 2198.5,1269.8 2230.1,1261.5 2262.2,1252.5 2294.4,1242.8 2326.6,1232.6  A 868.800,868.800 0.00 0,1 2327.4,1235.1 L 2327.4,1235.1 2295.1,1245.2 2262.9,1254.7 2230.8,1263.7 2199.2,1271.9 2168.1,1279.3 2137.8,1285.8 2108.5,1291.2 2080.2,1295.7 2053.1,1299.0 2027.4,1301.1 2003.1,1302.0 1980.4,1301.6 1959.4,1299.9 1940.1,1296.9 1922.6,1292.5 1907.1,1286.7 1893.5,1279.5 1881.9,1270.9 1872.3,1260.9 1864.7,1249.6 1859.3,1236.9 1855.9,1222.9 1854.5,1207.5 1855.2,1191.0 1857.9,1173.2 1862.6,1154.2 1869.2,1134.2 1877.6,1113.1 1887.9,1091.1 1899.8,1068.2 1913.4,1044.5 1928.4,1020.2 1944.9,995.2 1962.6,969.8 1981.5,944.1 2001.3,918.1 2022.0,892.0 2043.3,866.0 2065.2,840.1  Z" style="stroke-width: 0.0;  fill: rgb(127,255,127);" />
<path d="M 2067.187,841.887 A 868.800,868.800 0.00 0,1 2069.2,843.6 L 2069.2,843.6 2047.1,869.5 2025.6,895.7 2004.7,922.0 1984.7,948.3 1965.8,974.5 1948.0,1000.5 1931.6,1026.2 1916.6,1051.4 1903.1,1076.1 1891.3,1100.2 1881.3,1123.5 1873.1,1146.1 1866.8,1167.8 1862.4,1188.5 1860.1,1208.3 1859.8,1227.0 1861.6,1244.7 1865.6,1261.2 1871.6,1276.5 1879.8,1290.7 1890.0,1303.6 1902.3,1315.3 1916.7,1325.7 1933.0,1334.9 1951.3,1342.8 1971.4,1349.5 1993.3,1354.9 2017.0,1359.1 2042.2,1362.1 2068.9,1364.0 2097.0,1364.8 2126.4,1364.4 2156.8,1363.1 2188.2,1360.7 2220.4,1357.5 2253.2,1353.4 2286.4,1348.6 2319.9,1343.1 2353.4,1337.0  A 868.800,868.800 0.00 0,1 2353.9,1339.6 L 2353.9,1339.6 2320.4,1345.6 2286.9,1351.0 2253.6,1355.8 2220.8,1359.7 2188.6,1362.8 2157.1,1365.0 2126.6,1366.3 2097.3,1366.5 2069.1,1365.6 2042.3,1363.6 2017.0,1360.5 1993.4,1356.1 1971.4,1350.5 1951.2,1343.8 1932.8,1335.7 1916.4,1326.4 1902.0,1315.9 1889.7,1304.0 1879.3,1291.0 1871.1,1276.7 1865.0,1261.3 1861.0,1244.6 1859.1,1226.9 1859.3,1208.0 1861.5,1188.1 1865.8,1167.2 1872.0,1145.4 1880.1,1122.8 1890.1,1099.3 1901.8,1075.2 1915.2,1050.4 1930.1,1025.1 1946.5,999.3 1964.1,973.2 1983.0,946.9 2002.9,920.5 2023.7,894.1 2045.2,867.9 2067.2,841.9  Z" style="stroke-width: 0.0;  fill: rgb(127,255,127);" />
<path d="M 2327.454,1235.174 A 868.800,868.800 0.00 0,1 2328.5,1238.4 L 2328.5,1238.4 2296.6,1248.6 2265.0,1258.9 2234.0,1269.3 2203.7,1279.7 2174.3,1290.2 2146.2,1300.5 2119.3,1310.8 2094.0,1320.9 2070.3,1330.8 2048.4,1340.5 2028.5,1349.9 2010.6,1359.1 1994.9,1367.9 1981.4,1376.4 1970.2,1384.5 1961.4,1392.1 1955.0,1399.4 1951.1,1406.3 1949.7,1412.6 1950.8,1418.6 1954.5,1424.0 1960.6,1429.0 1969.1,1433.4 1980.1,1437.4 1993.5,1440.9 2009.1,1443.9 2027.0,1446.4 2047.0,1448.5 2069.0,1450.1 2092.9,1451.2 2118.5,1451.8 2145.8,1452.1 2174.5,1451.9 2204.6,1451.4 2235.7,1450.5 2267.7,1449.2 2300.4,1447.7 2333.6,1445.9 2367.0,1443.8  A 868.800,868.800 0.00 0,1 2367.2,1447.2 L 2367.2,1447.2 2333.8,1449.1 2300.6,1450.8 2267.9,1452.2 2235.8,1453.3 2204.7,1454.0 2174.7,1454.4 2145.9,1454.4 2118.6,1454.0 2092.9,1453.2 2069.0,1451.9 2047.0,1450.1 2027.0,1447.9 2009.1,1445.2 1993.4,1442.0 1980.0,1438.3 1969.0,1434.2 1960.4,1429.5 1954.3,1424.3 1950.6,1418.7 1949.5,1412.6 1950.8,1406.0 1954.7,1399.0 1961.0,1391.5 1969.8,1383.7 1980.9,1375.4 1994.4,1366.7 2010.1,1357.7 2027.9,1348.4 2047.8,1338.8 2069.6,1328.9 2093.3,1318.9 2118.6,1308.6 2145.4,1298.2 2173.5,1287.6 2202.8,1277.1 2233.1,1266.5 2264.1,1255.9 2295.6,1245.5 2327.5,1235.2  Z" style="stroke-width: 0.0;  fill: rgb(95,255,159);" />
<path d="M 2289.108,1136.513 A 868.800,868.800 0.00 0,1 2292.7,1144.4 L 2292.7,1144.4 2262.0,1158.4 2231.7,1172.7 2201.9,1187.2 2173.0,1202.0 2145.0,1216.9 2118.2,1231.9 2092.8,1246.9 2068.8,1261.9 2046.6,1276.8 2026.1,1291.6 2007.5,1306.3 1991.0,1320.8 1976.6,1335.0 1964.4,1348.9 1954.5,1362.6 1946.9,1375.9 1941.7,1388.9 1939.0,1401.4 1938.7,1413.6 1940.8,1425.3 1945.4,1436.5 1952.4,1447.3 1961.9,1457.6 1973.7,1467.4 1987.8,1476.6 2004.1,1485.3 2022.7,1493.5 2043.2,1501.2 2065.8,1508.3 2090.2,1514.9 2116.3,1521.0 2144.0,1526.5 2173.1,1531.6 2203.5,1536.1 2234.9,1540.1 2267.2,1543.6 2300.2,1546.7 2333.6,1549.3 2367.3,1551.5  A 868.800,868.800 0.00 0,1 2366.7,1560.1 L 2366.7,1560.1 2333.1,1557.6 2299.6,1554.6 2266.6,1551.2 2234.3,1547.2 2202.9,1542.8 2172.5,1537.9 2143.4,1532.5 2115.7,1526.5 2089.5,1520.0 2065.1,1513.0 2042.5,1505.4 2021.9,1497.3 2003.3,1488.6 1986.9,1479.4 1972.8,1469.7 1960.9,1459.5 1951.4,1448.7 1944.3,1437.5 1939.6,1425.8 1937.4,1413.6 1937.6,1401.0 1940.3,1387.9 1945.4,1374.5 1952.8,1360.7 1962.6,1346.6 1974.7,1332.2 1989.0,1317.5 2005.4,1302.6 2023.8,1287.5 2044.2,1272.3 2066.3,1256.9 2090.1,1241.5 2115.4,1226.1 2142.1,1210.8 2169.9,1195.5 2198.7,1180.4 2228.3,1165.5 2258.5,1150.8 2289.1,1136.5  Z" style="stroke-width: 0.0;  fill: rgb(0,63,255);" />
<path d="M 2364.399,1587.336 A 868.800,868.800 0.00 0,1 2364.1,1590.4 L 2364.1,1590.4 2329.4,1587.1 2294.6,1584.6 2259.9,1583.0 2225.6,1582.4 2191.6,1582.7 2158.3,1584.2 2125.7,1586.7 2094.0,1590.5 2063.4,1595.5 2033.8,1601.7 2005.5,1609.2 1978.6,1618.1 1953.0,1628.2 1929.0,1639.8 1906.7,1652.7 1885.9,1666.9 1866.9,1682.5 1849.7,1699.5 1834.2,1717.8 1820.6,1737.3 1808.9,1758.2 1799.0,1780.3 1791.0,1803.5 1784.9,1827.9 1780.6,1853.4 1778.1,1879.9 1777.5,1907.4 1778.6,1935.7 1781.4,1964.9 1785.8,1994.7 1791.9,2025.2 1799.4,2056.2 1808.4,2087.7 1818.7,2119.4 1830.1,2151.3 1842.7,2183.3 1856.3,2215.3 1870.8,2247.0 1885.9,2278.4  A 868.800,868.800 0.00 0,1 1883.2,2279.7 L 1883.2,2279.7 1868.1,2248.3 1853.8,2216.5 1840.3,2184.5 1827.8,2152.4 1816.5,2120.4 1806.3,2088.6 1797.5,2057.0 1790.0,2025.9 1784.1,1995.4 1779.8,1965.4 1777.1,1936.2 1776.1,1907.7 1776.8,1880.2 1779.4,1853.5 1783.8,1828.0 1790.0,1803.4 1798.1,1780.1 1808.0,1757.9 1819.9,1736.9 1833.6,1717.2 1849.1,1698.8 1866.4,1681.8 1885.5,1666.0 1906.3,1651.6 1928.8,1638.6 1952.8,1626.9 1978.4,1616.6 2005.4,1607.6 2033.7,1600.0 2063.3,1593.6 2094.1,1588.5 2125.8,1584.6 2158.4,1581.9 2191.8,1580.4 2225.7,1579.9 2260.2,1580.4 2294.9,1581.9 2329.7,1584.2 2364.4,1587.3  Z" style="stroke-width: 0.0;  fill: rgb(111,255,143);" />
<path d="M 2092.037,2135.850 A 868.800,868.800 0.00 0,1 2089.1,2138.5 L 2089.1,2138.5 2066.3,2114.0 2043.5,2089.8 2020.7,2066.2 1998.2,2043.3 1976.1,2021.2 1954.5,2000.3 1933.5,1980.5 1913.2,1962.0 1893.7,1945.0 1875.2,1929.6 1857.7,1915.8 1841.2,1903.8 1825.9,1893.7 1811.8,1885.4 1798.9,1879.1 1787.4,1874.9 1777.2,1872.7 1768.4,1872.5 1761.1,1874.5 1755.1,1878.6 1750.6,1884.7 1747.6,1893.0 1746.0,1903.3 1745.8,1915.5 1747.0,1929.8 1749.6,1945.9 1753.6,1963.9 1758.8,1983.6 1765.3,2004.9 1773.1,2027.8 1781.9,2052.0 1791.8,2077.6 1802.7,2104.3 1814.4,2132.1 1827.0,2160.7 1840.3,2189.9 1854.1,2219.6 1868.4,2249.7 1883.1,2279.8  A 868.800,868.800 0.00 0,1 1879.5,2281.5 L 1879.5,2281.5 1865.0,2251.3 1850.8,2221.2 1837.1,2191.4 1824.0,2162.1 1811.6,2133.4 1800.0,2105.6 1789.3,2078.8 1779.6,2053.1 1770.9,2028.7 1763.4,2005.7 1757.1,1984.3 1752.0,1964.5 1748.2,1946.4 1745.8,1930.2 1744.8,1915.8 1745.1,1903.4 1746.9,1893.0 1750.2,1884.6 1754.9,1878.4 1761.0,1874.2 1768.5,1872.1 1777.5,1872.1 1787.8,1874.1 1799.5,1878.3 1812.6,1884.4 1826.8,1892.5 1842.3,1902.6 1859.0,1914.4 1876.7,1928.1 1895.4,1943.4 1915.0,1960.2 1935.5,1978.6 1956.6,1998.2 1978.4,2019.1 2000.6,2041.0 2023.3,2063.8 2046.1,2087.3 2069.1,2111.4 2092.0,2135.9  Z" style="stroke-width: 0.0;  fill: rgb(47,255,207);" />
<path d="M 1979.257,2224.656 A 868.800,868.800 0.00 0,1 1974.4,2227.9 L 1974.4,2227.9 1956.1,2199.9 1937.9,2172.2 1919.8,2145.0 1902.0,2118.5 1884.6,2092.9 1867.7,2068.3 1851.3,2044.9 1835.7,2022.8 1820.8,2002.3 1806.8,1983.3 1793.7,1966.1 1781.6,1950.7 1770.5,1937.2 1760.5,1925.7 1751.7,1916.3 1744.0,1909.0 1737.5,1903.9 1732.3,1901.0 1728.3,1900.4 1725.5,1901.9 1724.0,1905.7 1723.8,1911.7 1724.9,1919.9 1727.2,1930.2 1730.7,1942.6 1735.3,1957.1 1741.2,1973.5 1748.1,1991.9 1756.1,2012.0 1765.2,2033.7 1775.1,2057.1 1786.0,2081.8 1797.6,2107.9 1810.0,2135.1 1823.0,2163.2 1836.6,2192.1 1850.6,2221.6 1864.9,2251.5 1879.4,2281.6  A 868.800,868.800 0.00 0,1 1874.2,2284.1 L 1874.2,2284.1 1859.8,2253.9 1845.7,2223.9 1832.0,2194.3 1818.6,2165.3 1805.9,2137.0 1793.7,2109.7 1782.3,2083.5 1771.8,2058.6 1762.1,2035.2 1753.3,2013.2 1745.6,1993.0 1738.9,1974.5 1733.3,1957.9 1728.9,1943.3 1725.7,1930.7 1723.7,1920.2 1723.0,1911.9 1723.5,1905.7 1725.3,1901.8 1728.3,1900.1 1732.6,1900.6 1738.1,1903.3 1744.9,1908.3 1752.9,1915.4 1762.0,1924.6 1772.3,1935.9 1783.6,1949.2 1796.0,1964.5 1809.4,1981.5 1823.7,2000.3 1838.8,2020.7 1854.7,2042.6 1871.2,2065.9 1888.4,2090.4 1906.0,2115.9 1924.0,2142.2 1942.3,2169.3 1960.8,2196.8 1979.3,2224.7  Z" style="stroke-width: 0.0;  fill: rgb(0,207,255);" />
<path d="M 2301.718,1165.244 A 868.800,868.800 0.00 0,1 2304.6,1172.3 L 2304.6,1172.3 2270.8,1186.5 2237.1,1201.7 2203.8,1217.8 2170.8,1234.9 2138.5,1253.0 2106.9,1272.1 2076.1,1292.1 2046.2,1313.1 2017.4,1335.0 1989.7,1357.9 1963.2,1381.7 1938.0,1406.5 1914.3,1432.2 1891.9,1458.8 1871.1,1486.2 1851.9,1514.5 1834.2,1543.6 1818.2,1573.5 1803.9,1604.1 1791.3,1635.4 1780.4,1667.4 1771.3,1700.0 1763.8,1733.3 1758.1,1767.0 1754.1,1801.2 1751.8,1835.8 1751.2,1870.8 1752.2,1906.1 1754.8,1941.6 1758.9,1977.3 1764.5,2013.1 1771.5,2049.0 1779.9,2084.7 1789.5,2120.4 1800.3,2155.8 1812.2,2190.9 1825.1,2225.7 1838.9,2260.0 1853.4,2293.7  A 868.800,868.800 0.00 0,1 1846.5,2296.7 L 1846.5,2296.7 1832.2,2262.8 1818.7,2228.4 1806.1,2193.4 1794.5,2158.1 1783.9,2122.5 1774.5,2086.6 1766.4,2050.7 1759.7,2014.6 1754.3,1978.6 1750.4,1942.7 1748.1,1907.0 1747.3,1871.5 1748.1,1836.3 1750.6,1801.4 1754.8,1767.0 1760.6,1733.0 1768.2,1699.6 1777.5,1666.7 1788.5,1634.4 1801.2,1602.8 1815.6,1572.0 1831.7,1541.8 1849.4,1512.4 1868.7,1483.9 1889.5,1456.1 1911.9,1429.3 1935.7,1403.3 1960.8,1378.2 1987.3,1354.1 2015.0,1330.9 2043.7,1308.6 2073.6,1287.3 2104.3,1267.0 2135.9,1247.6 2168.2,1229.2 2201.0,1211.8 2234.3,1195.3 2268.0,1179.8 2301.7,1165.2  Z" style="stroke-width: 0.0;  fill: rgb(0,111,255);" />
<path d="M 2117.818,2110.831 A 868.800,868.800 0.00 0,1 2110.9,2117.8 L 2110.9,2117.8 2086.5,2093.6 2061.8,2070.0 2036.8,2047.1 2011.5,2025.0 1986.2,2004.1 1960.8,1984.4 1935.6,1966.0 1910.5,1949.1 1885.7,1933.8 1861.3,1920.3 1837.2,1908.5 1813.7,1898.6 1790.7,1890.8 1768.2,1884.9 1746.5,1881.2 1725.4,1879.6 1705.2,1880.2 1685.7,1883.0 1667.0,1887.9 1649.3,1895.1 1632.4,1904.5 1616.5,1916.0 1601.5,1929.7 1587.4,1945.5 1574.4,1963.3 1562.3,1983.0 1551.2,2004.7 1541.1,2028.1 1532.0,2053.3 1523.8,2080.0 1516.6,2108.2 1510.3,2137.8 1504.9,2168.6 1500.4,2200.3 1496.7,2233.0 1493.8,2266.4 1491.7,2300.3 1490.3,2334.4 1489.6,2368.7  A 868.800,868.800 0.00 0,1 1479.8,2368.6 L 1479.8,2368.6 1480.9,2334.2 1482.7,2300.0 1485.2,2266.1 1488.5,2232.7 1492.7,2199.9 1497.6,2168.1 1503.5,2137.3 1510.2,2107.7 1517.9,2079.4 1526.6,2052.5 1536.2,2027.3 1546.8,2003.7 1558.4,1981.9 1570.9,1962.1 1584.5,1944.1 1599.0,1928.2 1614.4,1914.4 1630.9,1902.7 1648.2,1893.1 1666.4,1885.8 1685.5,1880.6 1705.5,1877.6 1726.2,1876.8 1747.7,1878.2 1769.9,1881.7 1792.7,1887.3 1816.2,1894.9 1840.2,1904.5 1864.6,1916.0 1889.5,1929.3 1914.7,1944.3 1940.1,1960.9 1965.7,1979.0 1991.4,1998.5 2017.1,2019.1 2042.7,2040.9 2068.1,2063.5 2093.2,2086.9 2117.8,2110.8  Z" style="stroke-width: 0.0;  fill: rgb(0,0,239);" />
<path d="M 1874.051,2284.155 A 868.800,868.800 0.00 0,1 1868.3,2286.9 L 1868.3,2286.9 1853.8,2256.5 1839.0,2226.4 1824.1,2196.9 1808.9,2168.2 1793.7,2140.5 1778.4,2113.9 1763.1,2088.8 1747.9,2065.1 1732.8,2043.1 1717.9,2022.8 1703.2,2004.5 1688.7,1988.2 1674.6,1974.1 1660.7,1962.1 1647.3,1952.4 1634.2,1945.1 1621.6,1940.1 1609.5,1937.6 1597.8,1937.5 1586.6,1939.8 1576.0,1944.6 1565.8,1951.9 1556.3,1961.5 1547.3,1973.4 1538.9,1987.7 1531.0,2004.2 1523.8,2022.9 1517.1,2043.6 1511.0,2066.3 1505.5,2090.8 1500.5,2117.1 1496.2,2144.9 1492.3,2174.1 1489.0,2204.5 1486.2,2236.0 1483.9,2268.4 1482.1,2301.4 1480.7,2334.9 1479.7,2368.6  A 868.800,868.800 0.00 0,1 1473.3,2368.4 L 1473.3,2368.4 1474.5,2334.7 1476.2,2301.2 1478.3,2268.2 1480.9,2235.8 1484.0,2204.3 1487.6,2173.8 1491.7,2144.6 1496.4,2116.8 1501.7,2090.5 1507.6,2066.0 1514.0,2043.2 1521.0,2022.5 1528.6,2003.8 1536.8,1987.2 1545.5,1972.9 1554.9,1960.8 1564.8,1951.2 1575.2,1943.9 1586.2,1939.0 1597.8,1936.6 1609.8,1936.6 1622.3,1939.1 1635.3,1943.9 1648.7,1951.2 1662.5,1960.8 1676.6,1972.7 1691.1,1986.7 1705.9,2002.9 1720.9,2021.1 1736.1,2041.2 1751.5,2063.2 1767.0,2086.7 1782.6,2111.8 1798.2,2138.2 1813.7,2165.8 1829.1,2194.4 1844.4,2223.8 1859.4,2253.8 1874.1,2284.2  Z" style="stroke-width: 0.0;  fill: rgb(0,175,255);" />
<path d="M 1276.555,2339.575 A 868.800,868.800 0.00 0,1 1273.0,2338.6 L 1273.0,2338.6 1281.7,2306.4 1290.3,2274.4 1298.7,2242.9 1306.9,2212.1 1314.8,2182.2 1322.4,2153.3 1329.6,2125.8 1336.3,2099.7 1342.6,2075.2 1348.3,2052.5 1353.5,2031.6 1358.1,2012.7 1362.0,1995.9 1365.3,1981.4 1368.0,1969.0 1369.9,1959.1 1371.2,1951.5 1371.7,1946.3 1371.5,1943.6 1370.6,1943.3 1369.0,1945.5 1366.7,1950.2 1363.7,1957.2 1360.0,1966.7 1355.6,1978.5 1350.6,1992.6 1344.9,2008.9 1338.7,2027.3 1331.8,2047.7 1324.5,2069.9 1316.6,2094.0 1308.3,2119.6 1299.6,2146.7 1290.6,2175.1 1281.2,2204.6 1271.6,2235.0 1261.8,2266.1 1252.0,2297.8 1242.0,2329.6  A 868.800,868.800 0.00 0,1 1238.5,2328.5 L 1238.5,2328.5 1248.5,2296.7 1258.6,2265.1 1268.5,2234.0 1278.2,2203.7 1287.8,2174.2 1297.0,2145.9 1305.9,2118.8 1314.4,2093.3 1322.4,2069.3 1329.9,2047.1 1336.9,2026.7 1343.4,2008.4 1349.3,1992.2 1354.5,1978.2 1359.1,1966.4 1363.0,1957.0 1366.2,1950.0 1368.7,1945.4 1370.5,1943.2 1371.6,1943.5 1372.0,1946.3 1371.7,1951.6 1370.6,1959.2 1368.9,1969.3 1366.5,1981.6 1363.4,1996.3 1359.6,2013.1 1355.2,2032.0 1350.3,2053.0 1344.7,2075.8 1338.6,2100.3 1332.1,2126.5 1325.1,2154.1 1317.7,2182.9 1309.9,2212.9 1301.9,2243.7 1293.6,2275.3 1285.1,2307.3 1276.6,2339.6  Z" style="stroke-width: 0.0;  fill: rgb(63,255,191);" />
<path d="M 1868.144,2286.945 A 868.800,868.800 0.00 0,1 1864.7,2288.6 L 1864.7,2288.6 1849.8,2257.3 1834.3,2226.4 1818.2,2196.0 1801.5,2166.4 1784.2,2137.8 1766.4,2110.2 1748.0,2083.9 1729.2,2059.0 1710.0,2035.7 1690.4,2014.0 1670.3,1994.1 1650.0,1976.1 1629.3,1960.1 1608.3,1946.2 1587.1,1934.3 1565.7,1924.7 1544.1,1917.3 1522.4,1912.1 1500.5,1909.2 1478.6,1908.7 1456.6,1910.4 1434.6,1914.5 1412.7,1920.8 1390.8,1929.3 1369.0,1940.0 1347.4,1952.9 1325.9,1967.8 1304.6,1984.8 1283.6,2003.6 1262.9,2024.3 1242.5,2046.6 1222.5,2070.5 1202.8,2095.8 1183.6,2122.4 1164.9,2150.2 1146.7,2178.9 1129.0,2208.4 1112.0,2238.4 1095.5,2268.9  A 868.800,868.800 0.00 0,1 1092.1,2267.1 L 1092.1,2267.1 1108.7,2236.7 1125.9,2206.7 1143.7,2177.2 1162.1,2148.6 1181.0,2120.9 1200.4,2094.3 1220.2,2069.1 1240.4,2045.2 1261.0,2023.0 1281.9,2002.4 1303.1,1983.6 1324.5,1966.7 1346.2,1951.8 1368.0,1938.9 1390.0,1928.2 1412.0,1919.7 1434.2,1913.4 1456.3,1909.4 1478.5,1907.7 1500.6,1908.3 1522.7,1911.1 1544.6,1916.3 1566.4,1923.7 1588.0,1933.3 1609.4,1945.1 1630.6,1959.0 1651.4,1975.0 1672.0,1993.0 1692.2,2012.8 1712.0,2034.5 1731.4,2057.8 1750.4,2082.6 1768.9,2108.9 1786.9,2136.4 1804.3,2165.0 1821.2,2194.6 1837.5,2224.9 1853.1,2255.7 1868.1,2286.9  Z" style="stroke-width: 0.0;  fill: rgb(63,255,191);" />
<path d="M 1632.769,2358.595 A 868.800,868.800 0.00 0,1 1629.7,2359.1 L 1629.7,2359.1 1624.1,2324.7 1617.8,2290.5 1610.7,2256.7 1602.7,2223.3 1593.9,2190.7 1584.3,2158.9 1573.7,2128.1 1562.2,2098.6 1549.9,2070.3 1536.6,2043.5 1522.4,2018.2 1507.3,1994.6 1491.2,1972.7 1474.3,1952.7 1456.4,1934.6 1437.7,1918.4 1418.2,1904.3 1397.8,1892.3 1376.6,1882.4 1354.6,1874.5 1331.9,1868.9 1308.4,1865.4 1284.3,1864.0 1259.6,1864.7 1234.4,1867.5 1208.6,1872.3 1182.4,1879.2 1155.7,1888.0 1128.8,1898.6 1101.5,1911.1 1074.1,1925.2 1046.6,1940.9 1019.0,1958.1 991.4,1976.6 964.0,1996.4 936.8,2017.3 909.9,2039.1 883.4,2061.6 857.5,2084.8  A 868.800,868.800 0.00 0,1 855.3,2082.4 L 855.3,2082.4 881.4,2059.4 908.0,2036.9 935.0,2015.2 962.3,1994.4 989.8,1974.7 1017.5,1956.3 1045.2,1939.2 1072.9,1923.5 1100.4,1909.5 1127.8,1897.2 1154.9,1886.6 1181.6,1877.9 1208.0,1871.1 1233.9,1866.3 1259.3,1863.6 1284.1,1862.9 1308.4,1864.4 1331.9,1868.0 1354.8,1873.7 1376.9,1881.6 1398.3,1891.6 1418.8,1903.6 1438.5,1917.8 1457.4,1934.0 1475.4,1952.1 1492.5,1972.2 1508.7,1994.1 1523.9,2017.7 1538.3,2043.0 1551.7,2069.8 1564.2,2098.1 1575.8,2127.7 1586.5,2158.4 1596.4,2190.2 1605.3,2222.8 1613.4,2256.2 1620.6,2290.0 1627.1,2324.3 1632.8,2358.6  Z" style="stroke-width: 0.0;  fill: rgb(95,255,159);" />
<path d="M 1571.773,634.170 A 868.800,868.800 0.00 0,1 1574.9,634.4 L 1574.9,634.4 1571.2,672.7 1566.6,711.2 1561.0,749.9 1554.5,788.7 1547.0,827.4 1538.4,866.1 1528.7,904.5 1517.8,942.8 1505.9,980.6 1492.8,1018.1 1478.5,1055.1 1463.0,1091.6 1446.3,1127.5 1428.4,1162.8 1409.3,1197.4 1389.0,1231.2 1367.5,1264.2 1344.8,1296.4 1321.0,1327.8 1296.0,1358.2 1270.0,1387.7 1242.8,1416.2 1214.6,1443.8 1185.5,1470.3 1155.3,1495.8 1124.2,1520.3 1092.3,1543.7 1059.5,1566.0 1026.0,1587.3 991.9,1607.5 957.0,1626.6 921.7,1644.7 885.9,1661.8 849.7,1677.8 813.1,1692.8 776.4,1706.8 739.6,1719.8 702.7,1731.8 665.9,1743.0  A 868.800,868.800 0.00 0,1 665.0,1740.0 L 665.0,1740.0 701.8,1729.0 738.7,1717.0 775.6,1704.2 812.3,1690.3 848.8,1675.4 885.1,1659.6 920.9,1642.7 956.2,1624.7 991.0,1605.7 1025.2,1585.6 1058.7,1564.4 1091.4,1542.1 1123.4,1518.8 1154.4,1494.5 1184.5,1469.1 1213.7,1442.6 1241.9,1415.2 1269.0,1386.7 1295.0,1357.3 1319.9,1326.9 1343.6,1295.6 1366.2,1263.5 1387.7,1230.5 1407.9,1196.7 1426.9,1162.2 1444.7,1127.0 1461.3,1091.1 1476.7,1054.6 1490.9,1017.7 1503.9,980.2 1515.8,942.3 1526.5,904.2 1536.0,865.7 1544.5,827.1 1551.9,788.4 1558.3,749.6 1563.7,710.9 1568.2,672.4 1571.8,634.2  Z" style="stroke-width: 0.0;  fill: rgb(95,255,159);" />
<path d="M 1607.506,637.877 A 868.800,868.800 0.00 0,1 1609.8,638.2 L 1609.8,638.2 1604.6,676.1 1598.4,714.2 1591.3,752.4 1583.2,790.6 1574.1,828.8 1563.8,866.7 1552.5,904.5 1540.1,941.8 1526.5,978.8 1511.8,1015.3 1495.8,1051.2 1478.7,1086.5 1460.4,1121.2 1440.9,1155.1 1420.2,1188.2 1398.4,1220.4 1375.3,1251.8 1351.1,1282.2 1325.8,1311.7 1299.4,1340.2 1271.8,1367.6 1243.3,1394.0 1213.7,1419.3 1183.1,1443.5 1151.6,1466.6 1119.3,1488.5 1086.1,1509.3 1052.2,1529.0 1017.5,1547.6 982.2,1565.0 946.3,1581.3 910.0,1596.4 873.2,1610.5 836.1,1623.5 798.7,1635.4 761.2,1646.3 723.6,1656.3 686.1,1665.2 648.7,1673.3  A 868.800,868.800 0.00 0,1 648.2,1671.0 L 648.2,1671.0 685.6,1663.0 723.1,1654.2 760.7,1644.4 798.2,1633.6 835.6,1621.7 872.7,1608.8 909.5,1594.8 945.8,1579.8 981.7,1563.6 1017.0,1546.2 1051.6,1527.8 1085.6,1508.2 1118.7,1487.4 1151.1,1465.6 1182.5,1442.6 1213.1,1418.4 1242.6,1393.2 1271.1,1366.9 1298.6,1339.5 1325.0,1311.0 1350.3,1281.6 1374.4,1251.2 1397.4,1219.9 1419.2,1187.7 1439.9,1154.6 1459.3,1120.7 1477.5,1086.1 1494.5,1050.8 1510.4,1014.9 1525.1,978.4 1538.6,941.5 1550.9,904.1 1562.1,866.4 1572.2,828.4 1581.3,790.3 1589.3,752.1 1596.3,713.9 1602.4,675.8 1607.5,637.9  Z" style="stroke-width: 0.0;  fill: rgb(143,255,111);" />
<path d="M 1913.653,735.994 A 868.800,868.800 0.00 0,1 1919.0,738.9 L 1919.0,738.9 1899.9,772.8 1879.9,806.5 1859.0,840.1 1837.3,873.3 1814.6,906.3 1791.0,938.7 1766.4,970.6 1741.0,1001.9 1714.7,1032.5 1687.5,1062.4 1659.4,1091.5 1630.4,1119.6 1600.6,1146.9 1569.9,1173.2 1538.5,1198.5 1506.2,1222.7 1473.2,1245.9 1439.4,1267.9 1404.9,1288.7 1369.7,1308.4 1333.9,1326.9 1297.5,1344.2 1260.5,1360.2 1222.9,1375.0 1184.9,1388.6 1146.5,1401.0 1107.6,1412.2 1068.4,1422.1 1029.0,1430.8 989.3,1438.4 949.4,1444.8 909.4,1450.1 869.4,1454.3 829.4,1457.4 789.5,1459.6 749.8,1460.7 710.2,1461.0 671.0,1460.3 632.2,1458.9  A 868.800,868.800 0.00 0,1 632.5,1452.8 L 632.5,1452.8 671.2,1454.5 710.4,1455.4 749.8,1455.5 789.5,1454.5 829.4,1452.7 869.3,1449.8 909.3,1445.8 949.2,1440.7 989.0,1434.5 1028.6,1427.2 1068.0,1418.6 1107.1,1408.8 1145.8,1397.9 1184.2,1385.6 1222.1,1372.2 1259.5,1357.5 1296.4,1341.5 1332.7,1324.4 1368.4,1306.0 1403.5,1286.4 1437.8,1265.6 1471.5,1243.6 1504.4,1220.5 1536.5,1196.3 1567.8,1171.0 1598.3,1144.7 1627.9,1117.4 1656.7,1089.2 1684.6,1060.1 1711.6,1030.2 1737.7,999.6 1762.9,968.2 1787.2,936.2 1810.5,903.7 1833.0,870.7 1854.5,837.4 1875.1,803.8 1894.8,769.9 1913.7,736.0  Z" style="stroke-width: 0.0;  fill: rgb(0,191,255);" />
<path d="M 1238.364,2328.469 A 868.800,868.800 0.00 0,1 1227.4,2324.9 L 1227.4,2324.9 1238.2,2290.8 1248.2,2256.2 1257.3,2221.4 1265.4,2186.5 1272.3,2151.5 1278.0,2116.7 1282.3,2082.0 1285.3,2047.7 1286.8,2013.7 1286.9,1980.2 1285.3,1947.4 1282.1,1915.1 1277.3,1883.7 1270.8,1853.0 1262.6,1823.2 1252.7,1794.4 1241.1,1766.5 1227.7,1739.7 1212.7,1714.0 1195.9,1689.4 1177.4,1666.0 1157.4,1643.8 1135.7,1622.8 1112.4,1603.0 1087.7,1584.5 1061.5,1567.3 1034.0,1551.3 1005.1,1536.6 975.1,1523.1 943.9,1510.9 911.8,1500.0 878.7,1490.2 844.8,1481.6 810.3,1474.2 775.2,1467.9 739.8,1462.6 704.0,1458.4 668.2,1455.1 632.5,1452.7  A 868.800,868.800 0.00 0,1 633.2,1441.2 L 633.2,1441.2 669.0,1444.0 704.9,1447.8 740.6,1452.5 776.2,1458.3 811.3,1465.1 845.9,1473.1 879.9,1482.2 913.0,1492.4 945.3,1503.9 976.6,1516.6 1006.7,1530.5 1035.7,1545.7 1063.4,1562.2 1089.8,1579.9 1114.7,1598.8 1138.1,1619.0 1160.1,1640.5 1180.4,1663.1 1199.1,1686.9 1216.1,1711.9 1231.5,1738.0 1245.1,1765.2 1257.1,1793.4 1267.4,1822.6 1275.9,1852.8 1282.8,1883.8 1288.0,1915.6 1291.5,1948.1 1293.5,1981.3 1293.9,2015.0 1292.8,2049.2 1290.2,2083.9 1286.3,2118.8 1281.1,2153.9 1274.6,2189.1 1267.0,2224.3 1258.4,2259.3 1248.8,2294.1 1238.4,2328.5  Z" style="stroke-width: 0.0;  fill: rgb(0,0,143);" />
<path d="M 640.624,1372.382 A 868.800,868.800 0.00 0,1 641.1,1368.9 L 641.1,1368.9 674.1,1373.9 706.9,1378.9 739.1,1383.7 770.7,1388.4 801.3,1392.9 830.8,1397.2 859.0,1401.2 885.7,1405.0 910.7,1408.4 934.0,1411.5 955.3,1414.3 974.6,1416.7 991.7,1418.8 1006.5,1420.4 1019.1,1421.6 1029.2,1422.4 1036.9,1422.8 1042.1,1422.8 1044.8,1422.3 1045.0,1421.4 1042.6,1420.0 1037.7,1418.2 1030.3,1416.0 1020.5,1413.4 1008.3,1410.4 993.7,1406.9 976.9,1403.1 957.9,1399.0 936.9,1394.5 913.9,1389.7 889.2,1384.6 862.8,1379.2 834.9,1373.6 805.6,1367.8 775.3,1361.8 744.0,1355.7 711.9,1349.5 679.4,1343.2 646.6,1337.0  A 868.800,868.800 0.00 0,1 647.3,1333.5 L 647.3,1333.5 680.1,1339.9 712.5,1346.3 744.5,1352.7 775.8,1359.0 806.1,1365.1 835.3,1371.1 863.2,1376.9 889.6,1382.4 914.3,1387.7 937.3,1392.7 958.2,1397.3 977.2,1401.7 994.0,1405.7 1008.5,1409.3 1020.7,1412.5 1030.5,1415.3 1037.8,1417.7 1042.7,1419.7 1045.0,1421.3 1044.8,1422.4 1042.1,1423.1 1036.9,1423.3 1029.1,1423.1 1019.0,1422.5 1006.4,1421.5 991.5,1420.1 974.3,1418.2 955.0,1416.0 933.7,1413.4 910.4,1410.5 885.3,1407.2 858.6,1403.6 830.4,1399.7 800.9,1395.6 770.3,1391.3 738.7,1386.8 706.4,1382.1 673.6,1377.3 640.6,1372.4  Z" style="stroke-width: 0.0;  fill: rgb(79,255,175);" />
<path d="M 2089.042,2138.626 A 868.800,868.800 0.00 0,1 2086.7,2140.8 L 2086.7,2140.8 2057.4,2108.8 2027.7,2076.9 1997.9,2045.1 1967.7,2013.2 1937.3,1981.5 1906.7,1949.8 1875.7,1918.2 1844.6,1886.7 1813.2,1855.3 1781.5,1824.1 1749.6,1792.9 1717.5,1762.0 1685.1,1731.2 1652.5,1700.5 1619.7,1670.0 1586.6,1639.8 1553.3,1609.7 1519.9,1579.8 1486.2,1550.1 1452.3,1520.6 1418.2,1491.4 1384.0,1462.4 1349.6,1433.6 1315.0,1405.1 1280.3,1376.8 1245.4,1348.7 1210.4,1320.9 1175.3,1293.4 1140.0,1266.1 1104.7,1239.1 1069.3,1212.4 1033.8,1185.9 998.2,1159.6 962.5,1133.7 926.9,1108.0 891.2,1082.5 855.5,1057.4 819.8,1032.4 784.1,1007.8  A 868.800,868.800 0.00 0,1 785.9,1005.2 L 785.9,1005.2 821.5,1030.0 857.1,1055.1 892.8,1080.4 928.4,1105.9 964.0,1131.7 999.6,1157.8 1035.1,1184.1 1070.6,1210.7 1106.0,1237.6 1141.3,1264.7 1176.5,1292.0 1211.6,1319.6 1246.5,1347.5 1281.4,1375.5 1316.1,1403.9 1350.6,1432.4 1385.0,1461.2 1419.2,1490.3 1453.3,1519.5 1487.2,1549.0 1520.9,1578.6 1554.3,1608.5 1587.6,1638.6 1620.7,1668.8 1653.6,1699.3 1686.2,1729.9 1718.6,1760.6 1750.8,1791.6 1782.8,1822.6 1814.5,1853.8 1846.0,1885.1 1877.3,1916.6 1908.3,1948.1 1939.0,1979.7 1969.5,2011.4 1999.8,2043.2 2029.8,2074.9 2059.5,2106.8 2089.0,2138.6  Z" style="stroke-width: 0.0;  fill: rgb(95,255,159);" />
<path d="M 717.272,1877.028 A 868.800,868.800 0.00 0,1 716.3,1875.0 L 716.3,1875.0 747.8,1859.5 779.0,1843.3 809.6,1826.3 839.5,1808.5 868.6,1790.1 896.6,1771.1 923.4,1751.3 948.9,1731.0 972.9,1710.0 995.4,1688.5 1016.2,1666.5 1035.2,1643.9 1052.3,1620.9 1067.5,1597.4 1080.7,1573.5 1091.8,1549.2 1100.8,1524.6 1107.7,1499.7 1112.4,1474.5 1114.9,1449.0 1115.2,1423.4 1113.4,1397.6 1109.4,1371.7 1103.2,1345.7 1095.0,1319.7 1084.7,1293.7 1072.4,1267.7 1058.2,1241.9 1042.1,1216.2 1024.3,1190.7 1004.9,1165.5 983.8,1140.5 961.4,1115.9 937.7,1091.7 912.8,1068.0 887.0,1044.7 860.3,1022.0 832.9,1000.0 805.0,978.6  A 868.800,868.800 0.00 0,1 806.4,976.8 L 806.4,976.8 834.2,998.3 861.5,1020.4 888.2,1043.2 914.0,1066.5 938.8,1090.4 962.5,1114.7 984.9,1139.3 1005.8,1164.4 1025.3,1189.7 1043.0,1215.3 1059.0,1241.1 1073.2,1267.1 1085.5,1293.1 1095.8,1319.2 1104.0,1345.3 1110.1,1371.4 1114.1,1397.4 1115.9,1423.3 1115.6,1449.1 1113.1,1474.6 1108.3,1499.9 1101.5,1524.9 1092.5,1549.7 1081.3,1574.0 1068.2,1598.0 1053.0,1621.6 1035.8,1644.8 1016.8,1667.4 996.1,1689.6 973.6,1711.2 949.6,1732.2 924.2,1752.7 897.4,1772.5 869.4,1791.7 840.4,1810.2 810.5,1828.0 779.9,1845.1 748.7,1861.4 717.3,1877.0  Z" style="stroke-width: 0.0;  fill: rgb(143,255,111);" />
<path d="M 1227.265,2324.881 A 868.800,868.800 0.00 0,1 1220.2,2322.5 L 1220.2,2322.5 1232.4,2285.5 1243.9,2247.9 1254.7,2209.7 1264.7,2171.1 1273.8,2132.0 1282.0,2092.6 1289.1,2052.8 1295.3,2012.8 1300.3,1972.5 1304.3,1932.1 1307.0,1891.6 1308.6,1851.0 1308.9,1810.3 1307.9,1769.7 1305.7,1729.2 1302.2,1688.7 1297.4,1648.4 1291.3,1608.3 1283.8,1568.4 1275.1,1528.8 1265.1,1489.5 1253.8,1450.5 1241.2,1411.9 1227.4,1373.7 1212.4,1336.0 1196.1,1298.7 1178.8,1262.0 1160.3,1225.8 1140.8,1190.2 1120.2,1155.2 1098.7,1120.8 1076.3,1087.0 1053.1,1054.0 1029.1,1021.6 1004.4,990.0 979.1,959.2 953.3,929.1 927.0,899.8 900.4,871.3  A 868.800,868.800 0.00 0,1 905.8,866.2 L 905.8,866.2 932.2,894.9 958.3,924.5 984.0,954.9 1009.1,986.0 1033.6,1017.9 1057.4,1050.5 1080.5,1083.8 1102.7,1117.7 1124.1,1152.4 1144.5,1187.6 1163.9,1223.4 1182.3,1259.9 1199.6,1296.8 1215.7,1334.3 1230.7,1372.2 1244.5,1410.6 1257.1,1449.3 1268.4,1488.5 1278.4,1528.0 1287.2,1567.8 1294.7,1607.8 1300.9,1648.1 1305.8,1688.6 1309.4,1729.2 1311.7,1769.9 1312.8,1810.6 1312.7,1851.4 1311.3,1892.2 1308.8,1932.9 1305.1,1973.4 1300.2,2013.8 1294.3,2054.0 1287.4,2093.9 1279.5,2133.5 1270.6,2172.7 1260.9,2211.5 1250.4,2249.9 1239.2,2287.7 1227.3,2324.9  Z" style="stroke-width: 0.0;  fill: rgb(0,127,255);" />
<path d="M 2114.525,885.856 A 868.800,868.800 0.00 0,1 2116.1,887.4 L 2116.1,887.4 2089.8,912.9 2062.8,937.9 2035.0,962.2 2006.5,985.7 1977.4,1008.2 1947.6,1029.8 1917.3,1050.2 1886.6,1069.3 1855.3,1087.0 1823.6,1103.4 1791.6,1118.1 1759.2,1131.4 1726.6,1142.9 1693.8,1152.7 1660.7,1160.8 1627.6,1167.1 1594.3,1171.6 1561.0,1174.2 1527.7,1174.9 1494.4,1173.8 1461.2,1170.8 1428.2,1165.9 1395.3,1159.2 1362.6,1150.7 1330.2,1140.4 1298.1,1128.3 1266.4,1114.6 1235.0,1099.2 1204.0,1082.3 1173.5,1063.9 1143.6,1044.0 1114.1,1022.9 1085.3,1000.5 1057.1,977.0 1029.5,952.5 1002.7,927.1 976.6,901.0 951.3,874.2 926.9,847.0  A 868.800,868.800 0.00 0,1 928.6,845.6 L 928.6,845.6 952.9,872.8 978.1,899.6 1004.1,925.8 1030.9,951.2 1058.3,975.8 1086.5,999.3 1115.2,1021.8 1144.6,1043.0 1174.5,1062.8 1204.9,1081.3 1235.7,1098.3 1267.0,1113.7 1298.7,1127.4 1330.7,1139.5 1363.0,1149.8 1395.6,1158.3 1428.4,1165.1 1461.4,1169.9 1494.5,1172.9 1527.7,1174.1 1560.9,1173.3 1594.1,1170.7 1627.3,1166.2 1660.4,1159.9 1693.3,1151.8 1726.1,1141.9 1758.7,1130.4 1790.9,1117.1 1822.9,1102.3 1854.5,1085.9 1885.6,1068.1 1916.3,1049.0 1946.6,1028.5 1976.2,1006.9 2005.3,984.3 2033.7,960.8 2061.4,936.4 2088.4,911.4 2114.5,885.9  Z" style="stroke-width: 0.0;  fill: rgb(143,255,111);" />
<path d="M 769.941,1970.986 A 868.800,868.800 0.00 0,1 764.9,1963.0 L 764.9,1963.0 796.0,1942.9 826.8,1921.9 857.1,1900.0 887.0,1877.2 916.1,1853.5 944.4,1828.9 971.8,1803.5 998.2,1777.3 1023.4,1750.3 1047.4,1722.5 1070.2,1693.9 1091.6,1664.7 1111.5,1634.7 1130.0,1604.0 1146.9,1572.7 1162.2,1540.8 1175.8,1508.3 1187.8,1475.3 1198.1,1441.8 1206.7,1407.8 1213.6,1373.4 1218.7,1338.7 1222.1,1303.6 1223.8,1268.2 1223.8,1232.7 1222.1,1196.9 1218.9,1161.1 1214.0,1125.1 1207.5,1089.2 1199.6,1053.3 1190.2,1017.5 1179.4,981.9 1167.4,946.6 1154.2,911.5 1139.8,876.9 1124.4,842.6 1108.1,808.9 1091.0,775.8 1073.1,743.3  A 868.800,868.800 0.00 0,1 1081.4,738.7 L 1081.4,738.7 1098.9,771.4 1115.7,804.8 1131.7,838.8 1146.8,873.3 1160.9,908.3 1173.8,943.6 1185.6,979.2 1196.0,1015.1 1205.1,1051.1 1212.8,1087.3 1219.0,1123.5 1223.7,1159.7 1226.8,1195.9 1228.2,1231.9 1228.1,1267.8 1226.2,1303.4 1222.6,1338.8 1217.4,1373.9 1210.4,1408.6 1201.8,1442.9 1191.4,1476.7 1179.4,1510.0 1165.7,1542.9 1150.4,1575.1 1133.5,1606.8 1115.1,1637.8 1095.2,1668.1 1073.9,1697.8 1051.2,1726.7 1027.3,1754.8 1002.1,1782.2 975.9,1808.8 948.6,1834.6 920.4,1859.5 891.5,1883.6 861.8,1906.8 831.6,1929.1 800.9,1950.5 769.9,1971.0  Z" style="stroke-width: 0.0;  fill: rgb(0,15,255);" />
<path d="M 1535.917,631.943 A 868.800,868.800 0.00 0,1 1539.6,632.1 L 1539.6,632.1 1537.9,665.8 1535.7,699.4 1533.0,732.4 1529.8,764.9 1526.0,796.5 1521.7,827.0 1516.9,856.3 1511.4,884.2 1505.4,910.6 1498.8,935.3 1491.6,958.1 1483.7,979.0 1475.3,997.9 1466.2,1014.6 1456.6,1029.2 1446.3,1041.4 1435.5,1051.3 1424.1,1058.9 1412.1,1064.0 1399.6,1066.7 1386.6,1067.0 1373.1,1064.8 1359.1,1060.3 1344.7,1053.4 1329.9,1044.2 1314.8,1032.7 1299.3,1019.0 1283.5,1003.2 1267.4,985.4 1251.2,965.7 1234.8,944.1 1218.3,921.0 1201.7,896.3 1185.2,870.3 1168.7,843.1 1152.4,814.9 1136.2,785.9 1120.3,756.3 1104.8,726.3  A 868.800,868.800 0.00 0,1 1108.1,724.6 L 1108.1,724.6 1123.5,754.6 1139.3,784.3 1155.3,813.4 1171.5,841.6 1187.8,868.9 1204.2,895.0 1220.5,919.7 1236.9,943.0 1253.1,964.5 1269.1,984.3 1285.0,1002.2 1300.6,1018.0 1315.9,1031.8 1330.9,1043.3 1345.5,1052.6 1359.7,1059.6 1373.5,1064.2 1386.8,1066.4 1399.6,1066.1 1411.9,1063.5 1423.6,1058.4 1434.9,1050.9 1445.5,1041.0 1455.5,1028.8 1465.0,1014.3 1473.8,997.6 1482.1,978.7 1489.7,957.8 1496.8,935.0 1503.2,910.3 1509.1,884.0 1514.3,856.1 1519.0,826.8 1523.1,796.3 1526.7,764.7 1529.7,732.3 1532.2,699.2 1534.3,665.7 1535.9,631.9  Z" style="stroke-width: 0.0;  fill: rgb(63,255,191);" />
<path d="M 1220.076,2322.470 A 868.800,868.800 0.00 0,1 1214.9,2320.7 L 1214.9,2320.7 1227.9,2282.4 1240.3,2243.6 1252.2,2204.3 1263.5,2164.5 1274.1,2124.2 1284.0,2083.5 1293.2,2042.5 1301.6,2001.1 1309.2,1959.4 1315.9,1917.4 1321.8,1875.2 1326.7,1832.7 1330.7,1790.1 1333.8,1747.4 1335.9,1704.5 1337.0,1661.6 1337.1,1618.6 1336.3,1575.6 1334.4,1532.6 1331.5,1489.7 1327.7,1446.9 1322.8,1404.1 1317.0,1361.6 1310.1,1319.1 1302.4,1277.0 1293.6,1235.0 1284.0,1193.3 1273.4,1151.9 1262.0,1110.8 1249.8,1070.1 1236.7,1029.8 1222.9,989.9 1208.3,950.4 1193.1,911.4 1177.2,872.9 1160.7,835.0 1143.7,797.6 1126.2,760.8 1108.2,724.6  A 868.800,868.800 0.00 0,1 1113.1,722.1 L 1113.1,722.1 1130.9,758.5 1148.2,795.4 1165.0,833.0 1181.3,871.1 1197.0,909.7 1212.1,948.9 1226.5,988.5 1240.2,1028.5 1253.1,1068.9 1265.2,1109.8 1276.5,1150.9 1287.0,1192.4 1296.5,1234.2 1305.2,1276.3 1312.9,1318.6 1319.6,1361.1 1325.4,1403.7 1330.3,1446.6 1334.1,1489.5 1337.0,1532.5 1338.9,1575.5 1339.8,1618.6 1339.7,1661.7 1338.7,1704.7 1336.7,1747.7 1333.7,1790.5 1329.8,1833.2 1325.0,1875.7 1319.2,1918.0 1312.7,1960.1 1305.2,2001.9 1297.0,2043.4 1288.0,2084.5 1278.3,2125.3 1267.8,2165.7 1256.7,2205.6 1245.1,2245.1 1232.8,2284.1 1220.1,2322.5  Z" style="stroke-width: 0.0;  fill: rgb(0,223,255);" />
<path d="M 641.163,1368.806 A 868.800,868.800 0.00 0,1 641.9,1363.8 L 641.9,1363.8 676.3,1368.9 710.7,1373.3 745.0,1376.7 779.1,1379.3 812.7,1380.8 845.7,1381.3 878.0,1380.6 909.4,1378.7 939.8,1375.6 969.1,1371.2 997.1,1365.4 1023.8,1358.3 1049.1,1349.8 1072.9,1339.9 1095.1,1328.6 1115.6,1315.9 1134.4,1301.8 1151.5,1286.3 1166.7,1269.3 1180.1,1251.1 1191.7,1231.4 1201.4,1210.5 1209.3,1188.3 1215.3,1164.9 1219.4,1140.4 1221.7,1114.8 1222.3,1088.1 1221.1,1060.5 1218.1,1032.0 1213.6,1002.7 1207.5,972.8 1199.9,942.3 1190.8,911.2 1180.5,879.9 1169.0,848.3 1156.4,816.5 1142.8,784.8 1128.4,753.3 1113.2,722.0  A 868.800,868.800 0.00 0,1 1117.7,719.8 L 1117.7,719.8 1132.7,751.2 1146.9,782.8 1160.3,814.7 1172.8,846.5 1184.1,878.3 1194.3,909.8 1203.1,940.9 1210.5,971.6 1216.5,1001.7 1220.8,1031.1 1223.5,1059.7 1224.6,1087.5 1223.9,1114.4 1221.4,1140.2 1217.1,1164.9 1210.9,1188.5 1202.9,1210.8 1193.0,1231.9 1181.3,1251.7 1167.7,1270.2 1152.3,1287.4 1135.1,1303.1 1116.2,1317.4 1095.6,1330.4 1073.3,1341.9 1049.4,1352.0 1024.0,1360.7 997.2,1368.0 969.0,1374.0 939.7,1378.6 909.2,1382.0 877.7,1384.1 845.3,1385.0 812.2,1384.7 778.5,1383.4 744.4,1381.1 710.0,1377.8 675.6,1373.7 641.2,1368.8  Z" style="stroke-width: 0.0;  fill: rgb(0,255,255);" />
<path d="M 1214.782,2320.648 A 868.800,868.800 0.00 0,1 1212.0,2319.7 L 1212.0,2319.7 1225.3,2281.1 1238.1,2242.0 1250.3,2202.4 1262.1,2162.3 1273.2,2121.8 1283.7,2080.9 1293.5,2039.6 1302.6,1998.0 1311.0,1956.1 1318.6,1913.8 1325.4,1871.3 1331.3,1828.6 1336.5,1785.7 1340.7,1742.6 1344.1,1699.4 1346.7,1656.0 1348.3,1612.6 1349.0,1569.1 1348.8,1525.7 1347.6,1482.2 1345.6,1438.8 1342.6,1395.4 1338.8,1352.1 1334.1,1309.0 1328.4,1266.0 1321.9,1223.2 1314.6,1180.6 1306.4,1138.2 1297.4,1096.1 1287.7,1054.3 1277.1,1012.9 1265.9,971.7 1253.9,931.0 1241.4,890.7 1228.1,850.8 1214.4,811.4 1200.1,772.5 1185.3,734.1 1170.1,696.3  A 868.800,868.800 0.00 0,1 1172.8,695.2 L 1172.8,695.2 1187.9,733.1 1202.5,771.6 1216.7,810.6 1230.4,850.0 1243.5,890.0 1256.0,930.4 1267.9,971.1 1279.0,1012.3 1289.5,1053.8 1299.2,1095.7 1308.1,1137.8 1316.2,1180.2 1323.5,1222.9 1329.9,1265.7 1335.5,1308.7 1340.2,1351.9 1344.1,1395.2 1347.0,1438.7 1349.0,1482.1 1350.2,1525.6 1350.4,1569.2 1349.7,1612.7 1348.1,1656.1 1345.6,1699.5 1342.3,1742.8 1338.0,1785.9 1333.0,1828.9 1327.1,1871.6 1320.3,1914.2 1312.8,1956.5 1304.5,1998.5 1295.5,2040.2 1285.8,2081.5 1275.4,2122.5 1264.4,2163.0 1252.7,2203.2 1240.6,2242.8 1227.9,2282.0 1214.8,2320.6  Z" style="stroke-width: 0.0;  fill: rgb(111,255,143);" />
<path d="M 1211.919,2319.648 A 868.800,868.800 0.00 0,1 1208.1,2318.3 L 1208.1,2318.3 1221.7,2279.4 1234.8,2240.0 1247.6,2200.2 1259.8,2159.9 1271.5,2119.2 1282.7,2078.1 1293.2,2036.6 1303.1,1994.8 1312.4,1952.6 1320.9,1910.2 1328.8,1867.5 1335.9,1824.6 1342.3,1781.4 1347.9,1738.1 1352.8,1694.6 1356.8,1650.9 1360.0,1607.2 1362.4,1563.4 1364.1,1519.5 1364.8,1475.6 1364.8,1431.7 1364.0,1387.8 1362.3,1344.0 1359.8,1300.3 1356.5,1256.6 1352.5,1213.1 1347.7,1169.8 1342.1,1126.6 1335.7,1083.7 1328.7,1040.9 1321.0,998.5 1312.6,956.3 1303.5,914.5 1293.8,873.0 1283.6,831.9 1272.8,791.2 1261.5,750.9 1249.8,711.1 1237.6,671.8  A 868.800,868.800 0.00 0,1 1241.5,670.6 L 1241.5,670.6 1253.5,710.0 1265.1,749.9 1276.2,790.3 1286.9,831.1 1296.9,872.3 1306.5,913.8 1315.4,955.7 1323.7,997.9 1331.3,1040.4 1338.2,1083.2 1344.5,1126.2 1350.0,1169.4 1354.7,1212.8 1358.7,1256.4 1361.9,1300.1 1364.3,1343.9 1366.0,1387.8 1366.8,1431.7 1366.8,1475.6 1366.0,1519.6 1364.4,1563.5 1362.0,1607.4 1358.8,1651.1 1354.8,1694.8 1350.1,1738.4 1344.5,1781.8 1338.2,1825.0 1331.2,1868.0 1323.4,1910.7 1314.9,1953.2 1305.8,1995.4 1296.0,2037.3 1285.6,2078.9 1274.6,2120.1 1263.0,2160.9 1250.9,2201.2 1238.4,2241.2 1225.3,2280.7 1211.9,2319.6  Z" style="stroke-width: 0.0;  fill: rgb(47,255,207);" />
<path d="M 641.953,1363.735 A 868.800,868.800 0.00 0,1 642.4,1361.0 L 642.4,1361.0 677.4,1366.2 712.6,1370.7 747.9,1374.1 783.0,1376.6 818.0,1377.9 852.5,1378.1 886.5,1377.1 919.8,1374.7 952.4,1371.0 984.2,1365.9 1015.0,1359.4 1044.7,1351.4 1073.3,1341.9 1100.6,1330.9 1126.7,1318.4 1151.4,1304.4 1174.7,1288.8 1196.6,1271.7 1216.9,1253.2 1235.7,1233.1 1253.0,1211.7 1268.6,1188.8 1282.7,1164.5 1295.1,1139.0 1305.9,1112.1 1315.2,1084.1 1322.8,1055.0 1328.9,1024.8 1333.5,993.7 1336.6,961.7 1338.2,928.9 1338.4,895.5 1337.3,861.5 1335.0,827.1 1331.4,792.3 1326.7,757.4 1321.0,722.4 1314.4,687.5 1306.9,652.9  A 868.800,868.800 0.00 0,1 1309.6,652.3 L 1309.6,652.3 1317.0,687.0 1323.5,721.9 1329.1,756.9 1333.7,791.9 1337.1,826.7 1339.4,861.2 1340.4,895.2 1340.0,928.7 1338.3,961.5 1335.1,993.6 1330.4,1024.8 1324.2,1055.0 1316.5,1084.2 1307.1,1112.3 1296.2,1139.2 1283.6,1164.8 1269.5,1189.2 1253.7,1212.1 1236.4,1233.7 1217.5,1253.8 1197.1,1272.5 1175.2,1289.6 1151.8,1305.3 1127.0,1319.4 1100.9,1332.1 1073.4,1343.2 1044.8,1352.8 1015.0,1360.9 984.2,1367.5 952.4,1372.7 919.7,1376.6 886.3,1379.0 852.3,1380.2 817.7,1380.1 782.8,1378.9 747.6,1376.6 712.3,1373.2 677.0,1368.9 642.0,1363.7  Z" style="stroke-width: 0.0;  fill: rgb(127,255,127);" />
</g>
<defs>
<pattern id="hline-sparse" width="10" height="10" patternTransform="rotate(0 0 0)" patternUnits="userSpaceOnUse"><line x1="0" y1="0" x2="10" y2="0" style="stroke:black;stroke-width:2" /></pattern>
<pattern id="checker" width="10" height="10" patternTransform="rotate(45 0 0)" patternUnits="userSpaceOnUse"><line x1="0" y1="0" x2="10" y2="0" style="stroke:black;stroke-width:5" /><line x1="0" y1="0" x2="0" y2="10" style="stroke:black;stroke-width:4" /></pattern>
<pattern id="hline" width="10" height="10" patternTransform="rotate(0 0 0)" patternUnits="userSpaceOnUse"><line x1="0" y1="0" x2="10" y2="0" style="stroke:black;stroke-width:5" /></pattern>
<pattern id="vline" width="10" height="10" patternTransform="rotate(0 0 0)" patternUnits="userSpaceOnUse"><line x1="0" y1="0" x2="0" y2="10" style="stroke:black;stroke-width:5" /></pattern>
<pattern id="checker" width="10" height="10" patternTransform="rotate(45 0 0)" patternUnits="userSpaceOnUse"><line x1="0" y1="0" x2="10" y2="0" style="stroke:black;stroke-width:2" /><line x1="0" y1="0" x2="0" y2="10" style="stroke:black;stroke-width:2" /></pattern>
<pattern id="vline-sparse" width="10" height="10" patternTransform="rotate(0 0 0)" patternUnits="userSpaceOnUse"><line x1="0" y1="0" x2="0" y2="10" style="stroke:black;stroke-width:2" /></pattern>
</defs>
</svg>
